<svg version="1.1" viewBox="0.0 0.0 100.0 100.0" fill="none" stroke="none" stroke-linecap="square" stroke-miterlimit="10" xmlns:xlink="http://www.w3.org/1999/xlink" xmlns="http://www.w3.org/2000/svg"><clipPath id="p.0"><path d="m0 0l100.0 0l0 100.0l-100.0 0l0 -100.0z" clip-rule="nonzero"/></clipPath><g clip-path="url(#p.0)"><path fill="#000000" fill-opacity="0.0" d="m0 0l100.0 0l0 100.0l-100.0 0z" fill-rule="evenodd"/><path fill="#00ff00" d="m2.5273561 21.979002l0 0c0 3.8688927 10.627159 7.005249 23.736423 7.005249c13.109266 0 23.736422 -3.1363564 23.736422 -7.005249l0 0c0 -3.8688927 10.627159 -7.005249 23.736423 -7.005249c13.109268 0 23.736427 3.1363564 23.736427 7.005249l0 56.041992c0 -3.8688889 -10.627159 -7.005249 -23.736427 -7.005249c-13.109264 0 -23.736423 3.1363602 -23.736423 7.005249c0 3.8688965 -10.627155 7.005249 -23.736422 7.005249c-13.109265 0 -23.736423 -3.1363525 -23.736423 -7.005249z" fill-rule="evenodd"/><path stroke="#000000" stroke-width="1.0" stroke-linejoin="round" stroke-linecap="butt" d="m2.5273561 21.979002l0 0c0 3.8688927 10.627159 7.005249 23.736423 7.005249c13.109266 0 23.736422 -3.1363564 23.736422 -7.005249l0 0c0 -3.8688927 10.627159 -7.005249 23.736423 -7.005249c13.109268 0 23.736427 3.1363564 23.736427 7.005249l0 56.041992c0 -3.8688889 -10.627159 -7.005249 -23.736427 -7.005249c-13.109264 0 -23.736423 3.1363602 -23.736423 7.005249c0 3.8688965 -10.627155 7.005249 -23.736422 7.005249c-13.109265 0 -23.736423 -3.1363525 -23.736423 -7.005249z" fill-rule="evenodd"/><path fill="#000000" fill-opacity="0.0" d="m12.094488 20.125338l75.81102 -0.031496048l0 59.779526l-75.81102 0.03149414z" fill-rule="evenodd"/><path fill="#000000" d="m29.391361 64.55566l0 -2.9375038q-2.1875 -0.2647133 -3.5625 -0.9672699q-1.375 -0.7181778 -2.390623 -2.2958794q-1.0 -1.5777092 -1.15625 -3.8588943l2.953123 -0.54810333q0.328125 2.3592377 1.203125 3.4682503q1.234375 1.5619888 2.953125 1.7331467l0 -9.328125q-1.796875 -0.34300232 -3.6875 -1.3890915q-1.40625 -0.78066635 -2.171873 -2.1553497q-0.75 -1.3903122 -0.75 -3.1559372q0 -3.125 2.218748 -5.063423q1.484375 -1.297493 4.390625 -1.5955734l0 -1.390625l1.734375 -7.209778E-4l0 1.390625q2.546875 0.24894333 4.046875 1.4983177q1.921875 1.5929527 2.3125 4.3740425l-3.03125 0.45438385q-0.265625 -1.7186394 -1.09375 -2.640171q-0.8125 -0.9215393 -2.234375 -1.217823l0 8.453125q2.203125 0.5459595 2.921875 0.8581619q1.375 0.6088028 2.234375 1.467823q0.859375 0.8590164 1.3125 2.0463295q0.46875 1.1873055 0.46875 2.5779305q0 3.03125 -1.9375 5.07893q-1.9375 2.032055 -5.0 2.173954l0 2.9687462l-1.734375 7.247925E-4zm0 -25.656254q-1.703125 0.26633072 -2.6875 1.3761177q-0.984375 1.1097832 -0.984375 2.6254082q0 1.484375 0.828125 2.4996567q0.84375 0.99964905 2.84375 1.6081924l0 -8.109375zm1.734375 20.249283q1.703125 -0.21945953 2.8125 -1.4855461q1.125 -1.2660904 1.125 -3.1410904q0 -1.59375 -0.796875 -2.562172q-0.78125 -0.96842575 -3.140625 -1.7330704l0 8.921879zm16.801147 5.3992653l0 -2.9374962q-2.1875 -0.2647171 -3.5625 -0.9672699q-1.375 -0.7181778 -2.390625 -2.2958832q-1.0 -1.5777092 -1.15625 -3.8588943l2.953125 -0.54810333q0.328125 2.3592415 1.203125 3.4682503q1.234375 1.5619888 2.953125 1.7331505l0 -9.328125q-1.796875 -0.34300613 -3.6875 -1.3890953q-1.40625 -0.78066635 -2.171875 -2.155346q-0.75 -1.390316 -0.75 -3.155941q0 -3.125 2.21875 -5.063423q1.484375 -1.2974892 4.390625 -1.5955734l0 -1.390625l1.734375 -7.209778E-4l0 1.390625q2.546875 0.24894333 4.046875 1.4983215q1.921875 1.5929489 2.3125 4.3740387l-3.03125 0.45438385q-0.265625 -1.7186394 -1.09375 -2.640171q-0.8125 -0.9215355 -2.234375 -1.217823l0 8.453129q2.203125 0.5459595 2.921875 0.8581581q1.375 0.6088066 2.234375 1.467823q0.859375 0.85902023 1.3125 2.0463295q0.46875 1.1873055 0.46875 2.5779305q0 3.03125 -1.9375 5.07893q-1.9375 2.032055 -5.0 2.173954l0 2.96875l-1.734375 7.171631E-4zm0 -25.65625q-1.703125 0.26633453 -2.6875 1.3761177q-0.984375 1.1097832 -0.984375 2.6254082q0 1.484375 0.828125 2.4996567q0.84375 0.99964905 2.84375 1.6081924l0 -8.109375zm1.734375 20.249283q1.703125 -0.21945953 2.8125 -1.4855423q1.125 -1.2660942 1.125 -3.1410942q0 -1.59375 -0.796875 -2.5621681q-0.78125 -0.96842575 -3.140625 -1.7330704l0 8.921875zm16.801144 5.399269l0 -2.9375q-2.1875 -0.2647171 -3.5625 -0.9672699q-1.375 -0.7181778 -2.390625 -2.2958832q-1.0 -1.5777092 -1.15625 -3.8588943l2.953125 -0.5480995q0.328125 2.3592377 1.203125 3.4682503q1.234375 1.561985 2.953125 1.7331467l0 -9.328125q-1.796875 -0.34300232 -3.6875 -1.3890953q-1.40625 -0.78066254 -2.171875 -2.155346q-0.75 -1.3903122 -0.75 -3.1559372q0 -3.1250038 2.21875 -5.063423q1.484375 -1.297493 4.390625 -1.5955734l0 -1.390625l1.734375 -7.209778E-4l0 1.390625q2.546875 0.24893951 4.046875 1.4983177q1.921875 1.5929527 2.3125 4.3740387l-3.03125 0.45438385q-0.265625 -1.7186394 -1.09375 -2.640171q-0.8125 -0.9215355 -2.234375 -1.2178192l0 8.453125q2.203125 0.5459595 2.921875 0.8581619q1.375 0.6088028 2.234375 1.4678192q0.859375 0.85902023 1.3125 2.0463333q0.46875 1.1873016 0.46875 2.5779305q0 3.03125 -1.9375 5.07893q-1.9375 2.032055 -5.0 2.1739502l0 2.9687538l-1.734375 7.171631E-4zm0 -25.65625q-1.703125 0.26633072 -2.6875 1.3761139q-0.984375 1.109787 -0.984375 2.625412q0 1.484375 0.828125 2.4996529q0.84375 0.99965286 2.84375 1.6081963l0 -8.109375zm1.734375 20.249279q1.703125 -0.21945572 2.8125 -1.4855423q1.125 -1.2660942 1.125 -3.1410942q0 -1.59375 -0.796875 -2.5621681q-0.78125 -0.96842575 -3.140625 -1.7330704l0 8.921875z" fill-rule="nonzero"/></g></svg>