<svg version="1.1" viewBox="0.0 0.0 1499.5879265091864 288.70603674540683" fill="none" stroke="none" stroke-linecap="square" stroke-miterlimit="10" xmlns:xlink="http://www.w3.org/1999/xlink" xmlns="http://www.w3.org/2000/svg"><clipPath id="p.0"><path d="m0 0l1499.5879 0l0 288.70602l-1499.5879 0l0 -288.70602z" clip-rule="nonzero"/></clipPath><g clip-path="url(#p.0)"><path fill="#000000" fill-opacity="0.0" d="m0 0l1499.5879 0l0 288.70602l-1499.5879 0z" fill-rule="evenodd"/><path fill="#cfe2f3" d="m869.1508 81.70351l13.165344 -78.83464l4.472473 79.779526z" fill-rule="evenodd"/><path stroke="#000000" stroke-width="1.0" stroke-linejoin="round" stroke-linecap="butt" d="m869.1508 81.70351l13.165344 -78.83464l4.472473 79.779526z" fill-rule="evenodd"/><path fill="#cfe2f3" d="m874.2055 104.71922l-72.37793 33.905518l63.18109 -48.992134z" fill-rule="evenodd"/><path stroke="#000000" stroke-width="1.0" stroke-linejoin="round" stroke-linecap="butt" d="m874.2055 104.71922l-72.37793 33.905518l63.18109 -48.992134z" fill-rule="evenodd"/><path fill="#cfe2f3" d="m891.0307 90.010506l63.7323 48.20472l-72.77167 -33.055115z" fill-rule="evenodd"/><path stroke="#000000" stroke-width="1.0" stroke-linejoin="round" stroke-linecap="butt" d="m891.0307 90.010506l63.7323 48.20472l-72.77167 -33.055115z" fill-rule="evenodd"/><path fill="#cfe2f3" d="m873.7486 100.59843l7.779541 0l0 173.79529l-7.779541 0z" fill-rule="evenodd"/><path stroke="#000000" stroke-width="1.0" stroke-linejoin="round" stroke-linecap="butt" d="m873.7486 100.59843l7.779541 0l0 173.79529l-7.779541 0z" fill-rule="evenodd"/><path fill="#cfe2f3" d="m872.5347 83.92759l0 0c4.453064 -2.7309875 10.347412 -1.208046 13.165344 3.4015732l0 0c1.3532715 2.2136154 1.8015747 4.8575516 1.2463379 7.3501587c-0.5552368 2.492607 -2.0684814 4.629715 -4.206909 5.9411774l0 0c-4.453125 2.7309875 -10.347412 1.208046 -13.165405 -3.4015732l0 0c-2.8179321 -4.609619 -1.4924316 -10.560356 2.9606323 -13.291336z" fill-rule="evenodd"/><path stroke="#000000" stroke-width="1.0" stroke-linejoin="round" stroke-linecap="butt" d="m872.5347 83.92759l0 0c4.453064 -2.7309875 10.347412 -1.208046 13.165344 3.4015732l0 0c1.3532715 2.2136154 1.8015747 4.8575516 1.2463379 7.3501587c-0.5552368 2.492607 -2.0684814 4.629715 -4.206909 5.9411774l0 0c-4.453125 2.7309875 -10.347412 1.208046 -13.165405 -3.4015732l0 0c-2.8179321 -4.609619 -1.4924316 -10.560356 2.9606323 -13.291336z" fill-rule="evenodd"/><path fill="#cfe2f3" d="m829.1508 81.70351l13.165344 -78.83464l4.472473 79.779526z" fill-rule="evenodd"/><path stroke="#000000" stroke-width="1.0" stroke-linejoin="round" stroke-linecap="butt" d="m829.1508 81.70351l13.165344 -78.83464l4.472473 79.779526z" fill-rule="evenodd"/><path fill="#cfe2f3" d="m834.2055 104.71922l-72.37793 33.905518l63.18109 -48.992134z" fill-rule="evenodd"/><path stroke="#000000" stroke-width="1.0" stroke-linejoin="round" stroke-linecap="butt" d="m834.2055 104.71922l-72.37793 33.905518l63.18109 -48.992134z" fill-rule="evenodd"/><path fill="#cfe2f3" d="m851.0307 90.010506l63.7323 48.20472l-72.77167 -33.055115z" fill-rule="evenodd"/><path stroke="#000000" stroke-width="1.0" stroke-linejoin="round" stroke-linecap="butt" d="m851.0307 90.010506l63.7323 48.20472l-72.77167 -33.055115z" fill-rule="evenodd"/><path fill="#cfe2f3" d="m833.7486 100.59843l7.779541 0l0 173.79529l-7.779541 0z" fill-rule="evenodd"/><path stroke="#000000" stroke-width="1.0" stroke-linejoin="round" stroke-linecap="butt" d="m833.7486 100.59843l7.779541 0l0 173.79529l-7.779541 0z" fill-rule="evenodd"/><path fill="#cfe2f3" d="m832.5347 83.92759l0 0c4.453064 -2.7309875 10.347412 -1.208046 13.165344 3.4015732l0 0c1.3532715 2.2136154 1.8015747 4.8575516 1.2463379 7.3501587c-0.5552368 2.492607 -2.0684814 4.629715 -4.206909 5.9411774l0 0c-4.453125 2.7309875 -10.347412 1.208046 -13.165405 -3.4015732l0 0c-2.8179321 -4.609619 -1.4924316 -10.560356 2.9606323 -13.291336z" fill-rule="evenodd"/><path stroke="#000000" stroke-width="1.0" stroke-linejoin="round" stroke-linecap="butt" d="m832.5347 83.92759l0 0c4.453064 -2.7309875 10.347412 -1.208046 13.165344 3.4015732l0 0c1.3532715 2.2136154 1.8015747 4.8575516 1.2463379 7.3501587c-0.5552368 2.492607 -2.0684814 4.629715 -4.206909 5.9411774l0 0c-4.453125 2.7309875 -10.347412 1.208046 -13.165405 -3.4015732l0 0c-2.8179321 -4.609619 -1.4924316 -10.560356 2.9606323 -13.291336z" fill-rule="evenodd"/><path fill="#cfe2f3" d="m107.78017 81.70351l13.165352 -78.83464l4.4724426 79.779526z" fill-rule="evenodd"/><path stroke="#000000" stroke-width="1.0" stroke-linejoin="round" stroke-linecap="butt" d="m107.78017 81.70351l13.165352 -78.83464l4.4724426 79.779526z" fill-rule="evenodd"/><path fill="#cfe2f3" d="m112.83488 104.71922l-72.377945 33.905518l63.181103 -48.992134z" fill-rule="evenodd"/><path stroke="#000000" stroke-width="1.0" stroke-linejoin="round" stroke-linecap="butt" d="m112.83488 104.71922l-72.377945 33.905518l63.181103 -48.992134z" fill-rule="evenodd"/><path fill="#cfe2f3" d="m129.66008 90.010506l63.732285 48.20472l-72.77165 -33.055115z" fill-rule="evenodd"/><path stroke="#000000" stroke-width="1.0" stroke-linejoin="round" stroke-linecap="butt" d="m129.66008 90.010506l63.732285 48.20472l-72.77165 -33.055115z" fill-rule="evenodd"/><path fill="#cfe2f3" d="m112.37795 100.59843l7.7795258 0l0 173.79529l-7.7795258 0z" fill-rule="evenodd"/><path stroke="#000000" stroke-width="1.0" stroke-linejoin="round" stroke-linecap="butt" d="m112.37795 100.59843l7.7795258 0l0 173.79529l-7.7795258 0z" fill-rule="evenodd"/><path fill="#cfe2f3" d="m111.1641 83.92759l0 0c4.4530716 -2.7309875 10.347397 -1.208046 13.1653595 3.4015732l0 0c1.3532257 2.2136154 1.8015442 4.8575516 1.246315 7.3501587c-0.55522156 2.492607 -2.068512 4.629715 -4.2069473 5.9411774l0 0c-4.4530716 2.7309875 -10.347397 1.208046 -13.165352 -3.4015732l0 0c-2.8179626 -4.609619 -1.4924393 -10.560356 2.9606247 -13.291336z" fill-rule="evenodd"/><path stroke="#000000" stroke-width="1.0" stroke-linejoin="round" stroke-linecap="butt" d="m111.1641 83.92759l0 0c4.4530716 -2.7309875 10.347397 -1.208046 13.1653595 3.4015732l0 0c1.3532257 2.2136154 1.8015442 4.8575516 1.246315 7.3501587c-0.55522156 2.492607 -2.068512 4.629715 -4.2069473 5.9411774l0 0c-4.4530716 2.7309875 -10.347397 1.208046 -13.165352 -3.4015732l0 0c-2.8179626 -4.609619 -1.4924393 -10.560356 2.9606247 -13.291336z" fill-rule="evenodd"/><path fill="#ffff00" d="m147.30971 188.60104l0 0c0 -7.3405914 5.894333 -13.291336 13.1653595 -13.291336c7.2710266 0 13.1653595 5.9507446 13.1653595 13.291336c0 7.3406067 -5.894333 13.291351 -13.1653595 13.291351c-7.2710266 0 -13.1653595 -5.9507446 -13.1653595 -13.291351z" fill-rule="evenodd"/><path fill="#cbcb00" d="m154.88588 184.62596c0 -0.76464844 0.6139984 -1.3845215 1.3713989 -1.3845215c0.7574005 0 1.3713837 0.61987305 1.3713837 1.3845215c0 0.7646332 -0.61398315 1.3845062 -1.3713837 1.3845062c-0.7574005 0 -1.3713989 -0.61987305 -1.3713989 -1.3845062m8.435577 0c0 -0.76464844 0.6139984 -1.3845215 1.3713989 -1.3845215c0.7574005 0 1.3713837 0.61987305 1.3713837 1.3845215c0 0.7646332 -0.61398315 1.3845062 -1.3713837 1.3845062c-0.7574005 0 -1.3713989 -0.61987305 -1.3713989 -1.3845062" fill-rule="evenodd"/><path fill="#000000" fill-opacity="0.0" d="m153.33936 194.39749q7.1357117 4.947571 14.254761 0" fill-rule="evenodd"/><path fill="#000000" fill-opacity="0.0" d="m147.30971 188.60104l0 0c0 -7.3405914 5.894333 -13.291336 13.1653595 -13.291336c7.2710266 0 13.1653595 5.9507446 13.1653595 13.291336c0 7.3406067 -5.894333 13.291351 -13.1653595 13.291351c-7.2710266 0 -13.1653595 -5.9507446 -13.1653595 -13.291351z" fill-rule="evenodd"/><path stroke="#000000" stroke-width="1.0" stroke-linejoin="round" stroke-linecap="butt" d="m154.88588 184.62596c0 -0.76464844 0.6139984 -1.3845215 1.3713989 -1.3845215c0.7574005 0 1.3713837 0.61987305 1.3713837 1.3845215c0 0.7646332 -0.61398315 1.3845062 -1.3713837 1.3845062c-0.7574005 0 -1.3713989 -0.61987305 -1.3713989 -1.3845062m8.435577 0c0 -0.76464844 0.6139984 -1.3845215 1.3713989 -1.3845215c0.7574005 0 1.3713837 0.61987305 1.3713837 1.3845215c0 0.7646332 -0.61398315 1.3845062 -1.3713837 1.3845062c-0.7574005 0 -1.3713989 -0.61987305 -1.3713989 -1.3845062" fill-rule="evenodd"/><path stroke="#000000" stroke-width="1.0" stroke-linejoin="round" stroke-linecap="butt" d="m153.33936 194.39749q7.1357117 4.947571 14.254761 0" fill-rule="evenodd"/><path stroke="#000000" stroke-width="1.0" stroke-linejoin="round" stroke-linecap="butt" d="m147.30971 188.60104l0 0c0 -7.3405914 5.894333 -13.291336 13.1653595 -13.291336c7.2710266 0 13.1653595 5.9507446 13.1653595 13.291336c0 7.3406067 -5.894333 13.291351 -13.1653595 13.291351c-7.2710266 0 -13.1653595 -5.9507446 -13.1653595 -13.291351z" fill-rule="evenodd"/><path fill="#000000" fill-opacity="0.0" d="m160.47507 201.8924l-0.75590515 49.13385" fill-rule="evenodd"/><path stroke="#000000" stroke-width="1.0" stroke-linejoin="round" stroke-linecap="butt" d="m160.47507 201.8924l-0.75590515 49.13385" fill-rule="evenodd"/><path fill="#000000" fill-opacity="0.0" d="m159.71916 252.27034l-12.409454 16.125992" fill-rule="evenodd"/><path stroke="#000000" stroke-width="1.0" stroke-linejoin="round" stroke-linecap="butt" d="m159.71916 252.27034l-12.409454 16.125992" fill-rule="evenodd"/><path fill="#000000" fill-opacity="0.0" d="m159.71916 251.02625l13.669296 18.614166" fill-rule="evenodd"/><path stroke="#000000" stroke-width="1.0" stroke-linejoin="round" stroke-linecap="butt" d="m159.71916 251.02625l13.669296 18.614166" fill-rule="evenodd"/><path fill="#000000" fill-opacity="0.0" d="m160.47507 201.8924l-15.653549 24.314957" fill-rule="evenodd"/><path stroke="#000000" stroke-width="1.0" stroke-linejoin="round" stroke-linecap="butt" d="m160.47507 201.8924l-15.653549 24.314957" fill-rule="evenodd"/><path fill="#000000" fill-opacity="0.0" d="m160.47507 201.8924l15.401581 24.314957" fill-rule="evenodd"/><path stroke="#000000" stroke-width="1.0" stroke-linejoin="round" stroke-linecap="butt" d="m160.47507 201.8924l15.401581 24.314957" fill-rule="evenodd"/><path fill="#ff0000" d="m64.51486 23.232601l19.559052 27.212597l0 0l-51.56188 37.082687l-23.383001 -3.8228455l0 0l3.823948 -23.389751l51.561882 -37.082687z" fill-rule="evenodd"/><path stroke="#000000" stroke-width="1.0" stroke-linejoin="round" stroke-linecap="butt" d="m64.51486 23.232601l19.559052 27.212597l0 0l-51.56188 37.082687l-23.383001 -3.8228455l0 0l3.823948 -23.389751l51.561882 -37.082687z" fill-rule="evenodd"/><path fill="#000000" fill-opacity="0.0" d="m21.068405 46.519684l24.944881 -17.921259l27.307087 38.078735l-24.944881 17.921265z" fill-rule="evenodd"/><path fill="#000000" d="m52.241142 64.86617l-1.1564217 -1.612587q-1.314785 0.7137146 -2.3584366 0.8670883q-1.0436554 0.15338135 -2.2211838 -0.308918q-1.1739464 -0.4841156 -2.164238 -1.6773529l1.4057388 -1.4716759q1.1191216 1.1583977 2.0348167 1.4432602q1.3044281 0.3711319 2.319889 -0.22373581l-3.6877975 -5.142502q-1.1390686 0.52975464 -2.5984802 0.6932373q-1.0836601 0.12439728 -2.0487595 -0.33660507q-0.9615135 -0.4828148 -1.6535454 -1.4478264q-1.2383728 -1.7268639 -0.7850456 -3.6686592q0.2931137 -1.3072281 1.7863235 -2.6301117l-0.5554428 -0.7745514l0.9517212 -0.68375015l0.5554466 0.7745514q1.5087128 -0.8722801 2.8343506 -0.76649857q1.6942215 0.11033249 3.011734 1.4917488l-1.4929199 1.4573517q-0.8225136 -0.8520317 -1.6435661 -1.0317345q-0.82105255 -0.17969894 -1.7261848 0.22046661l3.3417816 4.659996q1.4458466 -0.55776215 1.9702911 -0.68442917q0.9854355 -0.20774841 1.8009682 -0.06255722q0.8191147 0.12337494 1.5464058 0.60131454q0.7272873 0.4779358 1.2736282 1.239788q1.2019501 1.676075 0.9464226 3.5719566q-0.26462936 1.8831863 -1.9012985 3.1937027l1.1655235 1.6252861l-0.9517212 0.68374634zm-10.152832 -14.157753q-0.838871 0.81430817 -0.94745255 1.8158073q-0.10858154 1.0014992 0.4923935 1.8395348q0.59186935 0.8253403 1.4493446 1.0558319q0.8701668 0.22137451 2.2109146 -0.24163818l-3.2052002 -4.469536zm8.964722 10.490082q0.85708237 -0.7889099 0.9653702 -1.9248734q0.12097931 -1.1450844 -0.62568283 -2.1862793q-0.6282921 -0.87613297 -1.4421806 -1.0994606q-0.81388474 -0.22333145 -2.4305115 0.28396988l3.5330048 4.9266434z" fill-rule="nonzero"/><path fill="#00ff00" d="m19.585302 222.01575l0 0c0 2.7135925 7.780962 4.913391 17.379263 4.913391c9.598305 0 17.379269 -2.1997986 17.379269 -4.913391l0 0c0 -2.7135925 7.78096 -4.913391 17.379265 -4.913391c9.598305 0 17.379265 2.1997986 17.379265 4.913391l0 39.3071c0 -2.7135925 -7.78096 -4.913391 -17.379265 -4.913391c-9.598305 0 -17.379265 2.1997986 -17.379265 4.913391c0 2.713562 -7.780964 4.9133606 -17.379269 4.9133606c-9.598301 0 -17.379263 -2.1997986 -17.379263 -4.9133606z" fill-rule="evenodd"/><path stroke="#000000" stroke-width="1.0" stroke-linejoin="round" stroke-linecap="butt" d="m19.585302 222.01575l0 0c0 2.7135925 7.780962 4.913391 17.379263 4.913391c9.598305 0 17.379269 -2.1997986 17.379269 -4.913391l0 0c0 -2.7135925 7.78096 -4.913391 17.379265 -4.913391c9.598305 0 17.379265 2.1997986 17.379265 4.913391l0 39.3071c0 -2.7135925 -7.78096 -4.913391 -17.379265 -4.913391c-9.598305 0 -17.379265 2.1997986 -17.379265 4.913391c0 2.713562 -7.780964 4.9133606 -17.379269 4.9133606c-9.598301 0 -17.379263 -2.1997986 -17.379263 -4.9133606z" fill-rule="evenodd"/><path fill="#000000" fill-opacity="0.0" d="m36.910965 218.25255l34.866142 -0.03149414l0 46.866135l-34.866142 0.03149414z" fill-rule="evenodd"/><path fill="#000000" d="m51.551586 251.32745l0 -1.984375q-1.484375 -0.18615723 -2.421875 -0.66967773q-0.9375 -0.48353577 -1.625 -1.5454102q-0.671875 -1.0775146 -0.78125 -2.624298l2.0 -0.37680054q0.234375 1.5935364 0.8125 2.3586426q0.84375 1.0617371 2.015625 1.170044l0 -6.328125q-1.234375 -0.23326111 -2.515625 -0.95085144q-0.953125 -0.53038025 -1.46875 -1.4674225q-0.5 -0.95266724 -0.5 -2.1401672q0 -2.125 1.5 -3.438858q1.0 -0.8915405 2.984375 -1.0964508l0 -0.953125l1.1718712 -0.0010528564l0 0.953125q1.734375 0.17030334 2.75 1.0287628q1.3125 1.0769348 1.578125 2.9673157l-2.0625 0.31437683q-0.171875 -1.1717224 -0.734375 -1.7962189q-0.5625 -0.62449646 -1.53125 -0.82673645l0 5.734375q1.5 0.38926697 2.0 0.5919342q0.921875 0.40542603 1.5 0.9986572q0.59375 0.5775757 0.90625 1.389801q0.3125 0.81222534 0.3125 1.7497253q0 2.0625 -1.3125 3.4543q-1.3125 1.3761902 -3.40625 1.4874573l0 2.0l-1.1718712 0.0010528564zm0 -17.421875q-1.15625 0.1729126 -1.828125 0.92352295q-0.671875 0.75061035 -0.671875 1.7818604q0 1.015625 0.5625 1.7026215q0.578125 0.6869812 1.9375 1.0919952l0 -5.5zm1.1718712 13.748947q1.15625 -0.1416626 1.90625 -1.0017242q0.765625 -0.86006165 0.765625 -2.1413116q0 -1.078125 -0.53125 -1.733902q-0.53125 -0.6557617 -2.140625 -1.1855621l0 6.0625z" fill-rule="nonzero"/><path fill="#cfe2f3" d="m451.78015 81.70351l13.165375 -78.83464l4.4724426 79.779526z" fill-rule="evenodd"/><path stroke="#000000" stroke-width="1.0" stroke-linejoin="round" stroke-linecap="butt" d="m451.78015 81.70351l13.165375 -78.83464l4.4724426 79.779526z" fill-rule="evenodd"/><path fill="#cfe2f3" d="m456.83487 104.71922l-72.37793 33.905518l63.18109 -48.992134z" fill-rule="evenodd"/><path stroke="#000000" stroke-width="1.0" stroke-linejoin="round" stroke-linecap="butt" d="m456.83487 104.71922l-72.37793 33.905518l63.18109 -48.992134z" fill-rule="evenodd"/><path fill="#cfe2f3" d="m473.6601 90.010506l63.7323 48.20472l-72.77167 -33.055115z" fill-rule="evenodd"/><path stroke="#000000" stroke-width="1.0" stroke-linejoin="round" stroke-linecap="butt" d="m473.6601 90.010506l63.7323 48.20472l-72.77167 -33.055115z" fill-rule="evenodd"/><path fill="#cfe2f3" d="m456.37796 100.59843l7.7795105 0l0 173.79529l-7.7795105 0z" fill-rule="evenodd"/><path stroke="#000000" stroke-width="1.0" stroke-linejoin="round" stroke-linecap="butt" d="m456.37796 100.59843l7.7795105 0l0 173.79529l-7.7795105 0z" fill-rule="evenodd"/><path fill="#cfe2f3" d="m455.1641 83.92759l0 0c4.453064 -2.7309875 10.347412 -1.208046 13.165375 3.4015732l0 0c1.3532104 2.2136154 1.8015442 4.8575516 1.2463074 7.3501587c-0.5552368 2.492607 -2.068512 4.629715 -4.2069397 5.9411774l0 0c-4.453064 2.7309875 -10.347412 1.208046 -13.165375 -3.4015732l0 0c-2.8179321 -4.609619 -1.4924316 -10.560356 2.9606323 -13.291336z" fill-rule="evenodd"/><path stroke="#000000" stroke-width="1.0" stroke-linejoin="round" stroke-linecap="butt" d="m455.1641 83.92759l0 0c4.453064 -2.7309875 10.347412 -1.208046 13.165375 3.4015732l0 0c1.3532104 2.2136154 1.8015442 4.8575516 1.2463074 7.3501587c-0.5552368 2.492607 -2.068512 4.629715 -4.2069397 5.9411774l0 0c-4.453064 2.7309875 -10.347412 1.208046 -13.165375 -3.4015732l0 0c-2.8179321 -4.609619 -1.4924316 -10.560356 2.9606323 -13.291336z" fill-rule="evenodd"/><path fill="#ffff00" d="m491.30972 188.60104l0 0c0 -7.3405914 5.8943176 -13.291336 13.165344 -13.291336c7.2710266 0 13.165375 5.9507446 13.165375 13.291336c0 7.3406067 -5.894348 13.291351 -13.165375 13.291351c-7.2710266 0 -13.165344 -5.9507446 -13.165344 -13.291351z" fill-rule="evenodd"/><path fill="#cbcb00" d="m498.8859 184.62596c0 -0.76464844 0.61398315 -1.3845215 1.3713684 -1.3845215c0.7574158 0 1.3713989 0.61987305 1.3713989 1.3845215c0 0.7646332 -0.61398315 1.3845062 -1.3713989 1.3845062c-0.75738525 0 -1.3713684 -0.61987305 -1.3713684 -1.3845062m8.435577 0c0 -0.76464844 0.61398315 -1.3845215 1.3713684 -1.3845215c0.7574158 0 1.3713989 0.61987305 1.3713989 1.3845215c0 0.7646332 -0.61398315 1.3845062 -1.3713989 1.3845062c-0.75738525 0 -1.3713684 -0.61987305 -1.3713684 -1.3845062" fill-rule="evenodd"/><path fill="#000000" fill-opacity="0.0" d="m497.33936 194.39749q7.1357117 4.947571 14.254761 0" fill-rule="evenodd"/><path fill="#000000" fill-opacity="0.0" d="m491.30972 188.60104l0 0c0 -7.3405914 5.8943176 -13.291336 13.165344 -13.291336c7.2710266 0 13.165375 5.9507446 13.165375 13.291336c0 7.3406067 -5.894348 13.291351 -13.165375 13.291351c-7.2710266 0 -13.165344 -5.9507446 -13.165344 -13.291351z" fill-rule="evenodd"/><path stroke="#000000" stroke-width="1.0" stroke-linejoin="round" stroke-linecap="butt" d="m498.8859 184.62596c0 -0.76464844 0.61398315 -1.3845215 1.3713684 -1.3845215c0.7574158 0 1.3713989 0.61987305 1.3713989 1.3845215c0 0.7646332 -0.61398315 1.3845062 -1.3713989 1.3845062c-0.75738525 0 -1.3713684 -0.61987305 -1.3713684 -1.3845062m8.435577 0c0 -0.76464844 0.61398315 -1.3845215 1.3713684 -1.3845215c0.7574158 0 1.3713989 0.61987305 1.3713989 1.3845215c0 0.7646332 -0.61398315 1.3845062 -1.3713989 1.3845062c-0.75738525 0 -1.3713684 -0.61987305 -1.3713684 -1.3845062" fill-rule="evenodd"/><path stroke="#000000" stroke-width="1.0" stroke-linejoin="round" stroke-linecap="butt" d="m497.33936 194.39749q7.1357117 4.947571 14.254761 0" fill-rule="evenodd"/><path stroke="#000000" stroke-width="1.0" stroke-linejoin="round" stroke-linecap="butt" d="m491.30972 188.60104l0 0c0 -7.3405914 5.8943176 -13.291336 13.165344 -13.291336c7.2710266 0 13.165375 5.9507446 13.165375 13.291336c0 7.3406067 -5.894348 13.291351 -13.165375 13.291351c-7.2710266 0 -13.165344 -5.9507446 -13.165344 -13.291351z" fill-rule="evenodd"/><path fill="#000000" fill-opacity="0.0" d="m504.47507 201.8924l-0.7559204 49.13385" fill-rule="evenodd"/><path stroke="#000000" stroke-width="1.0" stroke-linejoin="round" stroke-linecap="butt" d="m504.47507 201.8924l-0.7559204 49.13385" fill-rule="evenodd"/><path fill="#000000" fill-opacity="0.0" d="m503.71915 252.27034l-12.409424 16.125992" fill-rule="evenodd"/><path stroke="#000000" stroke-width="1.0" stroke-linejoin="round" stroke-linecap="butt" d="m503.71915 252.27034l-12.409424 16.125992" fill-rule="evenodd"/><path fill="#000000" fill-opacity="0.0" d="m503.71915 251.02625l13.669281 18.614166" fill-rule="evenodd"/><path stroke="#000000" stroke-width="1.0" stroke-linejoin="round" stroke-linecap="butt" d="m503.71915 251.02625l13.669281 18.614166" fill-rule="evenodd"/><path fill="#000000" fill-opacity="0.0" d="m504.47507 201.8924l-15.653534 24.314957" fill-rule="evenodd"/><path stroke="#000000" stroke-width="1.0" stroke-linejoin="round" stroke-linecap="butt" d="m504.47507 201.8924l-15.653534 24.314957" fill-rule="evenodd"/><path fill="#000000" fill-opacity="0.0" d="m504.47507 201.8924l15.401581 24.314957" fill-rule="evenodd"/><path stroke="#000000" stroke-width="1.0" stroke-linejoin="round" stroke-linecap="butt" d="m504.47507 201.8924l15.401581 24.314957" fill-rule="evenodd"/><path fill="#ff0000" d="m408.51486 23.232601l19.559052 27.212597l0 0l-51.56189 37.082687l-23.382996 -3.8228455l0 0l3.823944 -23.389751l51.56189 -37.082687z" fill-rule="evenodd"/><path stroke="#000000" stroke-width="1.0" stroke-linejoin="round" stroke-linecap="butt" d="m408.51486 23.232601l19.559052 27.212597l0 0l-51.56189 37.082687l-23.382996 -3.8228455l0 0l3.823944 -23.389751l51.56189 -37.082687z" fill-rule="evenodd"/><path fill="#00ff00" d="m363.5853 222.01575l0 0c0 2.7135925 7.7809753 4.913391 17.379272 4.913391c9.598297 0 17.379272 -2.1997986 17.379272 -4.913391l0 0c0 -2.7135925 7.780945 -4.913391 17.379242 -4.913391c9.598328 0 17.379272 2.1997986 17.379272 4.913391l0 39.3071c0 -2.7135925 -7.780945 -4.913391 -17.379272 -4.913391c-9.598297 0 -17.379242 2.1997986 -17.379242 4.913391c0 2.713562 -7.7809753 4.9133606 -17.379272 4.9133606c-9.598297 0 -17.379272 -2.1997986 -17.379272 -4.9133606z" fill-rule="evenodd"/><path stroke="#000000" stroke-width="1.0" stroke-linejoin="round" stroke-linecap="butt" d="m363.5853 222.01575l0 0c0 2.7135925 7.7809753 4.913391 17.379272 4.913391c9.598297 0 17.379272 -2.1997986 17.379272 -4.913391l0 0c0 -2.7135925 7.780945 -4.913391 17.379242 -4.913391c9.598328 0 17.379272 2.1997986 17.379272 4.913391l0 39.3071c0 -2.7135925 -7.780945 -4.913391 -17.379272 -4.913391c-9.598297 0 -17.379242 2.1997986 -17.379242 4.913391c0 2.713562 -7.7809753 4.9133606 -17.379272 4.9133606c-9.598297 0 -17.379272 -2.1997986 -17.379272 -4.9133606z" fill-rule="evenodd"/><path fill="#000000" fill-opacity="0.0" d="m380.91098 218.25255l34.86612 -0.03149414l0 46.866135l-34.86612 0.03149414z" fill-rule="evenodd"/><path fill="#000000" d="m395.55157 251.32745l0 -1.984375q-1.484375 -0.18615723 -2.421875 -0.66967773q-0.9375 -0.48353577 -1.625 -1.5454102q-0.671875 -1.0775146 -0.78125 -2.624298l2.0 -0.37680054q0.234375 1.5935364 0.8125 2.3586426q0.84375 1.0617371 2.015625 1.170044l0 -6.328125q-1.234375 -0.23326111 -2.515625 -0.95085144q-0.953125 -0.53038025 -1.46875 -1.4674225q-0.5 -0.95266724 -0.5 -2.1401672q0 -2.125 1.5 -3.438858q1.0 -0.8915405 2.984375 -1.0964508l0 -0.953125l1.171875 -0.0010528564l0 0.953125q1.734375 0.17030334 2.75 1.0287628q1.3125 1.0769348 1.578125 2.9673157l-2.0625 0.31437683q-0.171875 -1.1717224 -0.734375 -1.7962189q-0.5625 -0.62449646 -1.53125 -0.82673645l0 5.734375q1.5 0.38926697 2.0 0.5919342q0.921875 0.40542603 1.5 0.9986572q0.59375 0.5775757 0.90625 1.389801q0.3125 0.81222534 0.3125 1.7497253q0 2.0625 -1.3125 3.4543q-1.3125 1.3761902 -3.40625 1.4874573l0 2.0l-1.171875 0.0010528564zm0 -17.421875q-1.15625 0.1729126 -1.828125 0.92352295q-0.671875 0.75061035 -0.671875 1.7818604q0 1.015625 0.5625 1.7026215q0.578125 0.6869812 1.9375 1.0919952l0 -5.5zm1.171875 13.748947q1.15625 -0.1416626 1.90625 -1.0017242q0.765625 -0.86006165 0.765625 -2.1413116q0 -1.078125 -0.53125 -1.733902q-0.53125 -0.6557617 -2.140625 -1.1855621l0 6.0625z" fill-rule="nonzero"/><path fill="#000000" fill-opacity="0.0" d="m353.90552 53.810528l54.64569 -39.212597l27.307068 38.07874l-54.64566 39.212597z" fill-rule="evenodd"/><path fill="#000000" d="m385.08307 72.16372l-1.1564026 -1.612587q-1.3152771 0.7130356 -2.359253 0.86598206q-1.0439453 0.15294647 -2.2217102 -0.3096695q-1.1741638 -0.48442078 -2.1644897 -1.6777115l1.4064026 -1.4707565q1.1192017 1.1585083 2.0350647 1.443634q1.304718 0.371521 2.3205566 -0.22280884l-3.6878052 -5.142502q-1.1394653 0.52919006 -2.5993042 0.69207764q-1.0839539 0.1239624 -2.0492249 -0.33727264q-0.96170044 -0.48304367 -1.653717 -1.4480553q-1.2383728 -1.7268677 -0.7845459 -3.6679726q0.2934265 -1.3067665 1.7872925 -2.6287422l-0.55545044 -0.7745514l0.9521179 -0.6832123l0.55545044 0.7745476q1.5092773 -0.87148285 2.835266 -0.7652359q1.6946411 0.1109314 3.0122375 1.4924698l-1.4935913 1.4564095q-0.8225708 -0.8521118 -1.6437988 -1.0320702q-0.82125854 -0.17995834 -1.7267151 0.2197609l3.3417969 4.659996q1.4463501 -0.5570755 1.9709473 -0.6835098q0.9857483 -0.2073288 1.8014526 -0.06187439q0.81933594 0.1236496 1.5467224 0.60173035q0.7273865 0.47808075 1.2737122 1.239933q1.2019653 1.6760788 0.9460144 3.5713577q-0.26507568 1.882576 -1.9024353 3.1921387l1.1655273 1.6252823l-0.9521179 0.6832123zm-10.152832 -14.157749q-0.8392334 0.8137779 -0.94802856 1.8149681q-0.10882568 1.0011902 0.49215698 1.8392258q0.5918579 0.8253403 1.4495239 1.0560913q0.8703613 0.22163773 2.2115479 -0.24075317l-3.2052002 -4.469532zm8.965118 10.490612q0.8574524 -0.78837585 0.9660034 -1.923996q0.12121582 -1.1447296 -0.62542725 -2.1859283q-0.6282959 -0.87613297 -1.4423523 -1.0997047q-0.8140869 -0.22357178 -2.431244 0.2829895l3.53302 4.9266396zm11.425049 -3.6789627l-1.1564026 -1.612587q-1.3152771 0.71303177 -2.359253 0.86598206q-1.0439453 0.15294647 -2.2217102 -0.3096695q-1.1741638 -0.48442078 -2.1644897 -1.6777077l1.4064026 -1.4707603q1.1192017 1.1585083 2.0350647 1.443634q1.304718 0.37151718 2.3205566 -0.22281265l-3.6878052 -5.142502q-1.1394653 0.52919006 -2.5993042 0.69208527q-1.0839539 0.1239624 -2.0492249 -0.33727646q-0.96170044 -0.48304367 -1.653717 -1.4480553q-1.2383728 -1.7268677 -0.7845459 -3.6679726q0.2934265 -1.3067665 1.7872925 -2.6287422l-0.55545044 -0.7745514l0.9521179 -0.6832123l0.55545044 0.7745476q1.5092773 -0.87148285 2.835266 -0.7652359q1.6946411 0.1109314 3.0122375 1.4924698l-1.4935913 1.4564095q-0.8225708 -0.8521118 -1.6437988 -1.0320702q-0.82125854 -0.17995834 -1.7267151 0.2197609l3.3417969 4.659996q1.4463501 -0.5570755 1.9709473 -0.6835098q0.9857483 -0.20732498 1.8014526 -0.06187439q0.81933594 0.1236496 1.5467224 0.60173035q0.7273865 0.47808075 1.2737122 1.239933q1.2019653 1.676075 0.9460144 3.571354q-0.26507568 1.8825836 -1.9024353 3.1921387l1.1655273 1.6252861l-0.9521179 0.6832123zm-10.152832 -14.157749q-0.8392334 0.8137779 -0.94802856 1.8149681q-0.10882568 1.0011902 0.49215698 1.8392258q0.5918579 0.8253403 1.4495239 1.0560913q0.8703613 0.22163773 2.2115479 -0.24075317l-3.2052002 -4.469532zm8.965118 10.490616q0.8574524 -0.7883835 0.9660034 -1.9240036q0.12121582 -1.1447296 -0.62542725 -2.1859283q-0.6282959 -0.87612915 -1.4423523 -1.0997009q-0.8140869 -0.22357178 -2.431244 0.2829895l3.53302 4.9266434zm11.425049 -3.6789665l-1.1564026 -1.612587q-1.3152771 0.71303177 -2.359253 0.86598206q-1.0439453 0.15294647 -2.2217102 -0.3096695q-1.1741638 -0.48442078 -2.1644897 -1.6777077l1.4064026 -1.4707603q1.1192017 1.1585083 2.0350647 1.443634q1.304718 0.37151718 2.3205566 -0.22281265l-3.6878052 -5.142502q-1.1394653 0.52919006 -2.5993042 0.69208527q-1.0839539 0.1239624 -2.0492249 -0.33727646q-0.9616699 -0.48304367 -1.653717 -1.4480553q-1.2383728 -1.7268677 -0.7845459 -3.6679726q0.2934265 -1.3067665 1.7872925 -2.6287422l-0.55545044 -0.7745514l0.9521179 -0.6832123l0.55545044 0.7745476q1.5092773 -0.87148285 2.835266 -0.7652359q1.6946411 0.1109314 3.0122375 1.4924698l-1.4935913 1.4564095q-0.8225708 -0.8521118 -1.6437988 -1.0320702q-0.82125854 -0.17995834 -1.7266846 0.2197609l3.3417664 4.659996q1.4463501 -0.5570755 1.9709473 -0.6835098q0.9857483 -0.20732498 1.8014526 -0.06187439q0.81933594 0.1236496 1.5467224 0.60173035q0.7273865 0.47808075 1.2737122 1.239933q1.2019653 1.676075 0.9460144 3.571354q-0.26507568 1.8825836 -1.9024353 3.1921387l1.1655273 1.6252861l-0.9521179 0.6832123zm-10.152832 -14.157749q-0.8392334 0.8137779 -0.94802856 1.8149681q-0.10882568 1.0011902 0.49215698 1.8392258q0.5918579 0.8253403 1.4495239 1.0560913q0.8703613 0.22163773 2.2115479 -0.24075317l-3.2052002 -4.469532zm8.965118 10.490616q0.8574524 -0.7883835 0.9660034 -1.9240036q0.12121582 -1.1447296 -0.62542725 -2.1859283q-0.6282959 -0.87612915 -1.4423523 -1.0997009q-0.8140869 -0.22357178 -2.4312134 0.2829895l3.5329895 4.9266434z" fill-rule="nonzero"/><path fill="#cfe2f3" d="m789.1508 81.70351l13.165344 -78.83464l4.472473 79.779526z" fill-rule="evenodd"/><path stroke="#000000" stroke-width="1.0" stroke-linejoin="round" stroke-linecap="butt" d="m789.1508 81.70351l13.165344 -78.83464l4.472473 79.779526z" fill-rule="evenodd"/><path fill="#cfe2f3" d="m794.2055 104.71922l-72.37793 33.905518l63.18109 -48.992134z" fill-rule="evenodd"/><path stroke="#000000" stroke-width="1.0" stroke-linejoin="round" stroke-linecap="butt" d="m794.2055 104.71922l-72.37793 33.905518l63.18109 -48.992134z" fill-rule="evenodd"/><path fill="#cfe2f3" d="m811.0307 90.010506l63.7323 48.20472l-72.77167 -33.055115z" fill-rule="evenodd"/><path stroke="#000000" stroke-width="1.0" stroke-linejoin="round" stroke-linecap="butt" d="m811.0307 90.010506l63.7323 48.20472l-72.77167 -33.055115z" fill-rule="evenodd"/><path fill="#cfe2f3" d="m793.7486 100.59843l7.779541 0l0 173.79529l-7.779541 0z" fill-rule="evenodd"/><path stroke="#000000" stroke-width="1.0" stroke-linejoin="round" stroke-linecap="butt" d="m793.7486 100.59843l7.779541 0l0 173.79529l-7.779541 0z" fill-rule="evenodd"/><path fill="#cfe2f3" d="m792.5347 83.92759l0 0c4.453064 -2.7309875 10.347412 -1.208046 13.165344 3.4015732l0 0c1.3532715 2.2136154 1.8015747 4.8575516 1.2463379 7.3501587c-0.5552368 2.492607 -2.0684814 4.629715 -4.206909 5.9411774l0 0c-4.453125 2.7309875 -10.347412 1.208046 -13.165405 -3.4015732l0 0c-2.8179321 -4.609619 -1.4924316 -10.560356 2.9606323 -13.291336z" fill-rule="evenodd"/><path stroke="#000000" stroke-width="1.0" stroke-linejoin="round" stroke-linecap="butt" d="m792.5347 83.92759l0 0c4.453064 -2.7309875 10.347412 -1.208046 13.165344 3.4015732l0 0c1.3532715 2.2136154 1.8015747 4.8575516 1.2463379 7.3501587c-0.5552368 2.492607 -2.0684814 4.629715 -4.206909 5.9411774l0 0c-4.453125 2.7309875 -10.347412 1.208046 -13.165405 -3.4015732l0 0c-2.8179321 -4.609619 -1.4924316 -10.560356 2.9606323 -13.291336z" fill-rule="evenodd"/><path fill="#ffff00" d="m915.3097 188.60104l0 0c0 -7.3405914 5.894348 -13.291336 13.165344 -13.291336c7.271057 0 13.165405 5.9507446 13.165405 13.291336c0 7.3406067 -5.894348 13.291351 -13.165405 13.291351c-7.270996 0 -13.165344 -5.9507446 -13.165344 -13.291351z" fill-rule="evenodd"/><path fill="#cbcb00" d="m922.88586 184.62596c0 -0.76464844 0.6140137 -1.3845215 1.3713989 -1.3845215c0.75738525 0 1.3713989 0.61987305 1.3713989 1.3845215c0 0.7646332 -0.6140137 1.3845062 -1.3713989 1.3845062c-0.75738525 0 -1.3713989 -0.61987305 -1.3713989 -1.3845062m8.435608 0c0 -0.76464844 0.6140137 -1.3845215 1.3713989 -1.3845215c0.75738525 0 1.3713989 0.61987305 1.3713989 1.3845215c0 0.7646332 -0.6140137 1.3845062 -1.3713989 1.3845062c-0.75738525 0 -1.3713989 -0.61987305 -1.3713989 -1.3845062" fill-rule="evenodd"/><path fill="#000000" fill-opacity="0.0" d="m921.33936 194.39749q7.135681 4.947571 14.254761 0" fill-rule="evenodd"/><path fill="#000000" fill-opacity="0.0" d="m915.3097 188.60104l0 0c0 -7.3405914 5.894348 -13.291336 13.165344 -13.291336c7.271057 0 13.165405 5.9507446 13.165405 13.291336c0 7.3406067 -5.894348 13.291351 -13.165405 13.291351c-7.270996 0 -13.165344 -5.9507446 -13.165344 -13.291351z" fill-rule="evenodd"/><path stroke="#000000" stroke-width="1.0" stroke-linejoin="round" stroke-linecap="butt" d="m922.88586 184.62596c0 -0.76464844 0.6140137 -1.3845215 1.3713989 -1.3845215c0.75738525 0 1.3713989 0.61987305 1.3713989 1.3845215c0 0.7646332 -0.6140137 1.3845062 -1.3713989 1.3845062c-0.75738525 0 -1.3713989 -0.61987305 -1.3713989 -1.3845062m8.435608 0c0 -0.76464844 0.6140137 -1.3845215 1.3713989 -1.3845215c0.75738525 0 1.3713989 0.61987305 1.3713989 1.3845215c0 0.7646332 -0.6140137 1.3845062 -1.3713989 1.3845062c-0.75738525 0 -1.3713989 -0.61987305 -1.3713989 -1.3845062" fill-rule="evenodd"/><path stroke="#000000" stroke-width="1.0" stroke-linejoin="round" stroke-linecap="butt" d="m921.33936 194.39749q7.135681 4.947571 14.254761 0" fill-rule="evenodd"/><path stroke="#000000" stroke-width="1.0" stroke-linejoin="round" stroke-linecap="butt" d="m915.3097 188.60104l0 0c0 -7.3405914 5.894348 -13.291336 13.165344 -13.291336c7.271057 0 13.165405 5.9507446 13.165405 13.291336c0 7.3406067 -5.894348 13.291351 -13.165405 13.291351c-7.270996 0 -13.165344 -5.9507446 -13.165344 -13.291351z" fill-rule="evenodd"/><path fill="#000000" fill-opacity="0.0" d="m928.47504 201.8924l-0.7558594 49.13385" fill-rule="evenodd"/><path stroke="#000000" stroke-width="1.0" stroke-linejoin="round" stroke-linecap="butt" d="m928.47504 201.8924l-0.7558594 49.13385" fill-rule="evenodd"/><path fill="#000000" fill-opacity="0.0" d="m927.7192 252.27034l-12.409485 16.125992" fill-rule="evenodd"/><path stroke="#000000" stroke-width="1.0" stroke-linejoin="round" stroke-linecap="butt" d="m927.7192 252.27034l-12.409485 16.125992" fill-rule="evenodd"/><path fill="#000000" fill-opacity="0.0" d="m927.7192 251.02625l13.6692505 18.614166" fill-rule="evenodd"/><path stroke="#000000" stroke-width="1.0" stroke-linejoin="round" stroke-linecap="butt" d="m927.7192 251.02625l13.6692505 18.614166" fill-rule="evenodd"/><path fill="#000000" fill-opacity="0.0" d="m928.47504 201.8924l-15.653503 24.314957" fill-rule="evenodd"/><path stroke="#000000" stroke-width="1.0" stroke-linejoin="round" stroke-linecap="butt" d="m928.47504 201.8924l-15.653503 24.314957" fill-rule="evenodd"/><path fill="#000000" fill-opacity="0.0" d="m928.47504 201.8924l15.401611 24.314957" fill-rule="evenodd"/><path stroke="#000000" stroke-width="1.0" stroke-linejoin="round" stroke-linecap="butt" d="m928.47504 201.8924l15.401611 24.314957" fill-rule="evenodd"/><path fill="#ff0000" d="m745.8855 23.232601l19.559082 27.212597l0 0l-51.56189 37.082687l-23.382996 -3.8228455l0 0l3.8239136 -23.389751l51.56189 -37.082687z" fill-rule="evenodd"/><path stroke="#000000" stroke-width="1.0" stroke-linejoin="round" stroke-linecap="butt" d="m745.8855 23.232601l19.559082 27.212597l0 0l-51.56189 37.082687l-23.382996 -3.8228455l0 0l3.8239136 -23.389751l51.56189 -37.082687z" fill-rule="evenodd"/><path fill="#00ff00" d="m700.95593 222.01575l0 0c0 2.7135925 7.781006 4.913391 17.379272 4.913391c9.598328 0 17.379272 -2.1997986 17.379272 -4.913391l0 0c0 -2.7135925 7.780945 -4.913391 17.379272 -4.913391c9.598267 0 17.379272 2.1997986 17.379272 4.913391l0 39.3071c0 -2.7135925 -7.781006 -4.913391 -17.379272 -4.913391c-9.598328 0 -17.379272 2.1997986 -17.379272 4.913391c0 2.713562 -7.780945 4.9133606 -17.379272 4.9133606c-9.598267 0 -17.379272 -2.1997986 -17.379272 -4.9133606z" fill-rule="evenodd"/><path stroke="#000000" stroke-width="1.0" stroke-linejoin="round" stroke-linecap="butt" d="m700.95593 222.01575l0 0c0 2.7135925 7.781006 4.913391 17.379272 4.913391c9.598328 0 17.379272 -2.1997986 17.379272 -4.913391l0 0c0 -2.7135925 7.780945 -4.913391 17.379272 -4.913391c9.598267 0 17.379272 2.1997986 17.379272 4.913391l0 39.3071c0 -2.7135925 -7.781006 -4.913391 -17.379272 -4.913391c-9.598328 0 -17.379272 2.1997986 -17.379272 4.913391c0 2.713562 -7.780945 4.9133606 -17.379272 4.9133606c-9.598267 0 -17.379272 -2.1997986 -17.379272 -4.9133606z" fill-rule="evenodd"/><path fill="#000000" fill-opacity="0.0" d="m718.2816 218.25255l34.86615 -0.03149414l0 46.866135l-34.86615 0.03149414z" fill-rule="evenodd"/><path fill="#000000" d="m732.92224 251.32745l0 -1.984375q-1.484375 -0.18615723 -2.421875 -0.66967773q-0.9375 -0.48353577 -1.625 -1.5454102q-0.671875 -1.0775146 -0.78125 -2.624298l2.0 -0.37680054q0.234375 1.5935364 0.8125 2.3586426q0.84375 1.0617371 2.015625 1.170044l0 -6.328125q-1.234375 -0.23326111 -2.515625 -0.95085144q-0.953125 -0.53038025 -1.46875 -1.4674225q-0.5 -0.95266724 -0.5 -2.1401672q0 -2.125 1.5 -3.438858q1.0 -0.8915405 2.984375 -1.0964508l0 -0.953125l1.171875 -0.0010528564l0 0.953125q1.734375 0.17030334 2.75 1.0287628q1.3125 1.0769348 1.578125 2.9673157l-2.0625 0.31437683q-0.171875 -1.1717224 -0.734375 -1.7962189q-0.5625 -0.62449646 -1.53125 -0.82673645l0 5.734375q1.5 0.38926697 2.0 0.5919342q0.921875 0.40542603 1.5 0.9986572q0.59375 0.5775757 0.90625 1.389801q0.3125 0.81222534 0.3125 1.7497253q0 2.0625 -1.3125 3.4543q-1.3125 1.3761902 -3.40625 1.4874573l0 2.0l-1.171875 0.0010528564zm0 -17.421875q-1.15625 0.1729126 -1.828125 0.92352295q-0.671875 0.75061035 -0.671875 1.7818604q0 1.015625 0.5625 1.7026215q0.578125 0.6869812 1.9375 1.0919952l0 -5.5zm1.171875 13.748947q1.15625 -0.1416626 1.90625 -1.0017242q0.765625 -0.86006165 0.765625 -2.1413116q0 -1.078125 -0.53125 -1.733902q-0.53125 -0.6557617 -2.140625 -1.1855621l0 6.0625z" fill-rule="nonzero"/><path fill="#000000" fill-opacity="0.0" d="m691.2762 53.810528l54.64563 -39.212597l27.307129 38.07874l-54.64569 39.212597z" fill-rule="evenodd"/><path fill="#000000" d="m722.45374 72.16372l-1.1564331 -1.612587q-1.3152466 0.7130356 -2.359253 0.86598206q-1.0439453 0.15294647 -2.2216797 -0.3096695q-1.1741943 -0.48442078 -2.1644897 -1.6777115l1.4063721 -1.4707565q1.1192017 1.1585083 2.0350952 1.443634q1.3046875 0.371521 2.3205566 -0.22280884l-3.6878052 -5.142502q-1.1394653 0.52919006 -2.5993042 0.69207764q-1.0839844 0.1239624 -2.0492554 -0.33727264q-0.9616699 -0.48304367 -1.6536865 -1.4480553q-1.2384033 -1.7268677 -0.7845459 -3.6679726q0.293396 -1.3067665 1.7872925 -2.6287422l-0.55548096 -0.7745514l0.95214844 -0.6832123l0.5554199 0.7745476q1.5092773 -0.87148285 2.835266 -0.7652359q1.6946411 0.1109314 3.012268 1.4924698l-1.4935913 1.4564095q-0.8225708 -0.8521118 -1.6438599 -1.0320702q-0.821228 -0.17995834 -1.7266846 0.2197609l3.3417969 4.659996q1.4463501 -0.5570755 1.9709473 -0.6835098q0.9857788 -0.2073288 1.8014526 -0.06187439q0.81933594 0.1236496 1.5466919 0.60173035q0.727417 0.47808075 1.2737427 1.239933q1.2019653 1.6760788 0.9459839 3.5713577q-0.26501465 1.882576 -1.9024048 3.1921387l1.1655273 1.6252823l-0.9520874 0.6832123zm-10.152832 -14.157749q-0.8392334 0.8137779 -0.9480591 1.8149681q-0.10882568 1.0011902 0.4921875 1.8392258q0.5918579 0.8253403 1.4495239 1.0560913q0.8703613 0.22163773 2.2115479 -0.24075317l-3.2052002 -4.469532zm8.965088 10.490612q0.8574829 -0.78837585 0.9660034 -1.923996q0.12121582 -1.1447296 -0.62542725 -2.1859283q-0.6282959 -0.87613297 -1.4423828 -1.0997047q-0.8140259 -0.22357178 -2.4312134 0.2829895l3.53302 4.9266396zm11.425049 -3.6789627l-1.1564331 -1.612587q-1.3152466 0.71303177 -2.359192 0.86598206q-1.0440063 0.15294647 -2.2217407 -0.3096695q-1.1741333 -0.48442078 -2.1644897 -1.6777077l1.4063721 -1.4707603q1.1192017 1.1585083 2.0350952 1.443634q1.3047485 0.37151718 2.3205566 -0.22281265l-3.6878052 -5.142502q-1.1394653 0.52919006 -2.5993042 0.69208527q-1.0839844 0.1239624 -2.0491943 -0.33727646q-0.96173096 -0.48304367 -1.6537476 -1.4480553q-1.2383423 -1.7268677 -0.7845459 -3.6679726q0.29345703 -1.3067665 1.7872925 -2.6287422l-0.5554199 -0.7745514l0.9520874 -0.6832123l0.55548096 0.7745476q1.5092773 -0.87148285 2.835205 -0.7652359q1.6947021 0.1109314 3.012268 1.4924698l-1.4935913 1.4564095q-0.8225708 -0.8521118 -1.6437988 -1.0320702q-0.821228 -0.17995834 -1.7266846 0.2197609l3.3417969 4.659996q1.4462891 -0.5570755 1.9709473 -0.6835098q0.9857178 -0.20732498 1.8014526 -0.06187439q0.8192749 0.1236496 1.5466919 0.60173035q0.727417 0.47808075 1.2737427 1.239933q1.2019653 1.676075 0.9459839 3.571354q-0.26507568 1.8825836 -1.9024048 3.1921387l1.1655273 1.6252861l-0.95214844 0.6832123zm-10.152832 -14.157749q-0.8392334 0.8137779 -0.9480591 1.8149681q-0.10876465 1.0011902 0.4921875 1.8392258q0.5918579 0.8253403 1.4495239 1.0560913q0.8703613 0.22163773 2.2115479 -0.24075317l-3.2052002 -4.469532zm8.965149 10.490616q0.8574219 -0.7883835 0.9660034 -1.9240036q0.12121582 -1.1447296 -0.6254883 -2.1859283q-0.62823486 -0.87612915 -1.4423218 -1.0997009q-0.8140869 -0.22357178 -2.4312134 0.2829895l3.53302 4.9266434zm11.425049 -3.6789665l-1.1564331 -1.612587q-1.3152466 0.71303177 -2.359253 0.86598206q-1.0439453 0.15294647 -2.2216797 -0.3096695q-1.1741943 -0.48442078 -2.1644897 -1.6777077l1.4063721 -1.4707603q1.1192017 1.1585083 2.0350952 1.443634q1.3046875 0.37151718 2.3205566 -0.22281265l-3.6878052 -5.142502q-1.1394653 0.52919006 -2.5993042 0.69208527q-1.0839844 0.1239624 -2.0492554 -0.33727646q-0.9616699 -0.48304367 -1.6536865 -1.4480553q-1.2384033 -1.7268677 -0.7845459 -3.6679726q0.293396 -1.3067665 1.7872925 -2.6287422l-0.55548096 -0.7745514l0.95214844 -0.6832123l0.5554199 0.7745476q1.5092773 -0.87148285 2.835266 -0.7652359q1.6946411 0.1109314 3.012268 1.4924698l-1.4935913 1.4564095q-0.8225708 -0.8521118 -1.6438599 -1.0320702q-0.821228 -0.17995834 -1.7266846 0.2197609l3.3417969 4.659996q1.4463501 -0.5570755 1.9709473 -0.6835098q0.9857788 -0.20732498 1.8014526 -0.06187439q0.81933594 0.1236496 1.5466919 0.60173035q0.727417 0.47808075 1.2737427 1.239933q1.2019653 1.676075 0.9459839 3.571354q-0.26501465 1.8825836 -1.9024048 3.1921387l1.1655273 1.6252861l-0.9520874 0.6832123zm-10.152832 -14.157749q-0.8392334 0.8137779 -0.9480591 1.8149681q-0.10882568 1.0011902 0.4921875 1.8392258q0.5918579 0.8253403 1.4495239 1.0560913q0.8703613 0.22163773 2.2115479 -0.24075317l-3.2052002 -4.469532zm8.965088 10.490616q0.8574829 -0.7883835 0.9660034 -1.9240036q0.12121582 -1.1447296 -0.62542725 -2.1859283q-0.6282959 -0.87612915 -1.4423828 -1.0997009q-0.8140259 -0.22357178 -2.4312134 0.2829895l3.53302 4.9266434z" fill-rule="nonzero"/><path fill="#cfe2f3" d="m1309.1508 81.70351l13.165405 -78.83464l4.472412 79.779526z" fill-rule="evenodd"/><path stroke="#000000" stroke-width="1.0" stroke-linejoin="round" stroke-linecap="butt" d="m1309.1508 81.70351l13.165405 -78.83464l4.472412 79.779526z" fill-rule="evenodd"/><path fill="#cfe2f3" d="m1314.2056 104.71922l-72.37805 33.905518l63.181152 -48.992134z" fill-rule="evenodd"/><path stroke="#000000" stroke-width="1.0" stroke-linejoin="round" stroke-linecap="butt" d="m1314.2056 104.71922l-72.37805 33.905518l63.181152 -48.992134z" fill-rule="evenodd"/><path fill="#cfe2f3" d="m1331.0308 90.010506l63.7323 48.20472l-72.77173 -33.055115z" fill-rule="evenodd"/><path stroke="#000000" stroke-width="1.0" stroke-linejoin="round" stroke-linecap="butt" d="m1331.0308 90.010506l63.7323 48.20472l-72.77173 -33.055115z" fill-rule="evenodd"/><path fill="#cfe2f3" d="m1313.7487 100.59843l7.779419 0l0 173.79529l-7.779419 0z" fill-rule="evenodd"/><path stroke="#000000" stroke-width="1.0" stroke-linejoin="round" stroke-linecap="butt" d="m1313.7487 100.59843l7.779419 0l0 173.79529l-7.779419 0z" fill-rule="evenodd"/><path fill="#cfe2f3" d="m1312.5348 83.92759l0 0c4.453003 -2.7309875 10.347412 -1.208046 13.165283 3.4015732l0 0c1.3532715 2.2136154 1.8015137 4.8575516 1.2463379 7.3501587c-0.5551758 2.492607 -2.0684814 4.629715 -4.206909 5.9411774l0 0c-4.453125 2.7309875 -10.347412 1.208046 -13.165405 -3.4015732l0 0c-2.8179932 -4.609619 -1.4924316 -10.560356 2.9606934 -13.291336z" fill-rule="evenodd"/><path stroke="#000000" stroke-width="1.0" stroke-linejoin="round" stroke-linecap="butt" d="m1312.5348 83.92759l0 0c4.453003 -2.7309875 10.347412 -1.208046 13.165283 3.4015732l0 0c1.3532715 2.2136154 1.8015137 4.8575516 1.2463379 7.3501587c-0.5551758 2.492607 -2.0684814 4.629715 -4.206909 5.9411774l0 0c-4.453125 2.7309875 -10.347412 1.208046 -13.165405 -3.4015732l0 0c-2.8179932 -4.609619 -1.4924316 -10.560356 2.9606934 -13.291336z" fill-rule="evenodd"/><path fill="#cfe2f3" d="m1269.1508 81.70351l13.165405 -78.83464l4.472412 79.779526z" fill-rule="evenodd"/><path stroke="#000000" stroke-width="1.0" stroke-linejoin="round" stroke-linecap="butt" d="m1269.1508 81.70351l13.165405 -78.83464l4.472412 79.779526z" fill-rule="evenodd"/><path fill="#cfe2f3" d="m1274.2056 104.71922l-72.37805 33.905518l63.181152 -48.992134z" fill-rule="evenodd"/><path stroke="#000000" stroke-width="1.0" stroke-linejoin="round" stroke-linecap="butt" d="m1274.2056 104.71922l-72.37805 33.905518l63.181152 -48.992134z" fill-rule="evenodd"/><path fill="#cfe2f3" d="m1291.0308 90.010506l63.7323 48.20472l-72.77173 -33.055115z" fill-rule="evenodd"/><path stroke="#000000" stroke-width="1.0" stroke-linejoin="round" stroke-linecap="butt" d="m1291.0308 90.010506l63.7323 48.20472l-72.77173 -33.055115z" fill-rule="evenodd"/><path fill="#cfe2f3" d="m1273.7487 100.59843l7.779419 0l0 173.79529l-7.779419 0z" fill-rule="evenodd"/><path stroke="#000000" stroke-width="1.0" stroke-linejoin="round" stroke-linecap="butt" d="m1273.7487 100.59843l7.779419 0l0 173.79529l-7.779419 0z" fill-rule="evenodd"/><path fill="#cfe2f3" d="m1272.5348 83.92759l0 0c4.453003 -2.7309875 10.347412 -1.208046 13.165283 3.4015732l0 0c1.3532715 2.2136154 1.8015137 4.8575516 1.2463379 7.3501587c-0.5551758 2.492607 -2.0684814 4.629715 -4.206909 5.9411774l0 0c-4.453125 2.7309875 -10.347412 1.208046 -13.165405 -3.4015732l0 0c-2.8179932 -4.609619 -1.4924316 -10.560356 2.9606934 -13.291336z" fill-rule="evenodd"/><path stroke="#000000" stroke-width="1.0" stroke-linejoin="round" stroke-linecap="butt" d="m1272.5348 83.92759l0 0c4.453003 -2.7309875 10.347412 -1.208046 13.165283 3.4015732l0 0c1.3532715 2.2136154 1.8015137 4.8575516 1.2463379 7.3501587c-0.5551758 2.492607 -2.0684814 4.629715 -4.206909 5.9411774l0 0c-4.453125 2.7309875 -10.347412 1.208046 -13.165405 -3.4015732l0 0c-2.8179932 -4.609619 -1.4924316 -10.560356 2.9606934 -13.291336z" fill-rule="evenodd"/><path fill="#cfe2f3" d="m1229.1508 81.70351l13.165405 -78.83464l4.472412 79.779526z" fill-rule="evenodd"/><path stroke="#000000" stroke-width="1.0" stroke-linejoin="round" stroke-linecap="butt" d="m1229.1508 81.70351l13.165405 -78.83464l4.472412 79.779526z" fill-rule="evenodd"/><path fill="#cfe2f3" d="m1234.2056 104.71922l-72.37805 33.905518l63.181152 -48.992134z" fill-rule="evenodd"/><path stroke="#000000" stroke-width="1.0" stroke-linejoin="round" stroke-linecap="butt" d="m1234.2056 104.71922l-72.37805 33.905518l63.181152 -48.992134z" fill-rule="evenodd"/><path fill="#cfe2f3" d="m1251.0308 90.010506l63.7323 48.20472l-72.77173 -33.055115z" fill-rule="evenodd"/><path stroke="#000000" stroke-width="1.0" stroke-linejoin="round" stroke-linecap="butt" d="m1251.0308 90.010506l63.7323 48.20472l-72.77173 -33.055115z" fill-rule="evenodd"/><path fill="#cfe2f3" d="m1233.7487 100.59843l7.779419 0l0 173.79529l-7.779419 0z" fill-rule="evenodd"/><path stroke="#000000" stroke-width="1.0" stroke-linejoin="round" stroke-linecap="butt" d="m1233.7487 100.59843l7.779419 0l0 173.79529l-7.779419 0z" fill-rule="evenodd"/><path fill="#cfe2f3" d="m1232.5348 83.92759l0 0c4.453003 -2.7309875 10.347412 -1.208046 13.165283 3.4015732l0 0c1.3532715 2.2136154 1.8015137 4.8575516 1.2463379 7.3501587c-0.5551758 2.492607 -2.0684814 4.629715 -4.206909 5.9411774l0 0c-4.453125 2.7309875 -10.347412 1.208046 -13.165405 -3.4015732l0 0c-2.8179932 -4.609619 -1.4924316 -10.560356 2.9606934 -13.291336z" fill-rule="evenodd"/><path stroke="#000000" stroke-width="1.0" stroke-linejoin="round" stroke-linecap="butt" d="m1232.5348 83.92759l0 0c4.453003 -2.7309875 10.347412 -1.208046 13.165283 3.4015732l0 0c1.3532715 2.2136154 1.8015137 4.8575516 1.2463379 7.3501587c-0.5551758 2.492607 -2.0684814 4.629715 -4.206909 5.9411774l0 0c-4.453125 2.7309875 -10.347412 1.208046 -13.165405 -3.4015732l0 0c-2.8179932 -4.609619 -1.4924316 -10.560356 2.9606934 -13.291336z" fill-rule="evenodd"/><path fill="#ffff00" d="m1355.3097 188.60104l0 0c0 -7.3405914 5.894409 -13.291336 13.165405 -13.291336c7.270996 0 13.165283 5.9507446 13.165283 13.291336c0 7.3406067 -5.894287 13.291351 -13.165283 13.291351c-7.270996 0 -13.165405 -5.9507446 -13.165405 -13.291351z" fill-rule="evenodd"/><path fill="#cbcb00" d="m1362.8859 184.62596c0 -0.76464844 0.6140137 -1.3845215 1.37146 -1.3845215c0.7573242 0 1.3713379 0.61987305 1.3713379 1.3845215c0 0.7646332 -0.6140137 1.3845062 -1.3713379 1.3845062c-0.7574463 0 -1.37146 -0.61987305 -1.37146 -1.3845062m8.435547 0c0 -0.76464844 0.6140137 -1.3845215 1.37146 -1.3845215c0.7573242 0 1.3713379 0.61987305 1.3713379 1.3845215c0 0.7646332 -0.6140137 1.3845062 -1.3713379 1.3845062c-0.7574463 0 -1.37146 -0.61987305 -1.37146 -1.3845062" fill-rule="evenodd"/><path fill="#000000" fill-opacity="0.0" d="m1361.3394 194.39749q7.135742 4.947571 14.254761 0" fill-rule="evenodd"/><path fill="#000000" fill-opacity="0.0" d="m1355.3097 188.60104l0 0c0 -7.3405914 5.894409 -13.291336 13.165405 -13.291336c7.270996 0 13.165283 5.9507446 13.165283 13.291336c0 7.3406067 -5.894287 13.291351 -13.165283 13.291351c-7.270996 0 -13.165405 -5.9507446 -13.165405 -13.291351z" fill-rule="evenodd"/><path stroke="#000000" stroke-width="1.0" stroke-linejoin="round" stroke-linecap="butt" d="m1362.8859 184.62596c0 -0.76464844 0.6140137 -1.3845215 1.37146 -1.3845215c0.7573242 0 1.3713379 0.61987305 1.3713379 1.3845215c0 0.7646332 -0.6140137 1.3845062 -1.3713379 1.3845062c-0.7574463 0 -1.37146 -0.61987305 -1.37146 -1.3845062m8.435547 0c0 -0.76464844 0.6140137 -1.3845215 1.37146 -1.3845215c0.7573242 0 1.3713379 0.61987305 1.3713379 1.3845215c0 0.7646332 -0.6140137 1.3845062 -1.3713379 1.3845062c-0.7574463 0 -1.37146 -0.61987305 -1.37146 -1.3845062" fill-rule="evenodd"/><path stroke="#000000" stroke-width="1.0" stroke-linejoin="round" stroke-linecap="butt" d="m1361.3394 194.39749q7.135742 4.947571 14.254761 0" fill-rule="evenodd"/><path stroke="#000000" stroke-width="1.0" stroke-linejoin="round" stroke-linecap="butt" d="m1355.3097 188.60104l0 0c0 -7.3405914 5.894409 -13.291336 13.165405 -13.291336c7.270996 0 13.165283 5.9507446 13.165283 13.291336c0 7.3406067 -5.894287 13.291351 -13.165283 13.291351c-7.270996 0 -13.165405 -5.9507446 -13.165405 -13.291351z" fill-rule="evenodd"/><path fill="#000000" fill-opacity="0.0" d="m1368.4751 201.8924l-0.75598145 49.13385" fill-rule="evenodd"/><path stroke="#000000" stroke-width="1.0" stroke-linejoin="round" stroke-linecap="butt" d="m1368.4751 201.8924l-0.75598145 49.13385" fill-rule="evenodd"/><path fill="#000000" fill-opacity="0.0" d="m1367.7191 252.27034l-12.409424 16.125992" fill-rule="evenodd"/><path stroke="#000000" stroke-width="1.0" stroke-linejoin="round" stroke-linecap="butt" d="m1367.7191 252.27034l-12.409424 16.125992" fill-rule="evenodd"/><path fill="#000000" fill-opacity="0.0" d="m1367.7191 251.02625l13.669312 18.614166" fill-rule="evenodd"/><path stroke="#000000" stroke-width="1.0" stroke-linejoin="round" stroke-linecap="butt" d="m1367.7191 251.02625l13.669312 18.614166" fill-rule="evenodd"/><path fill="#000000" fill-opacity="0.0" d="m1368.4751 201.8924l-15.653564 24.314957" fill-rule="evenodd"/><path stroke="#000000" stroke-width="1.0" stroke-linejoin="round" stroke-linecap="butt" d="m1368.4751 201.8924l-15.653564 24.314957" fill-rule="evenodd"/><path fill="#000000" fill-opacity="0.0" d="m1368.4751 201.8924l15.401489 24.314957" fill-rule="evenodd"/><path stroke="#000000" stroke-width="1.0" stroke-linejoin="round" stroke-linecap="butt" d="m1368.4751 201.8924l15.401489 24.314957" fill-rule="evenodd"/><path fill="#ff0000" d="m1185.8855 23.232601l19.559082 27.212597l0 0l-51.56189 37.082687l-23.383057 -3.8228455l0 0l3.8239746 -23.389751l51.56189 -37.082687z" fill-rule="evenodd"/><path stroke="#000000" stroke-width="1.0" stroke-linejoin="round" stroke-linecap="butt" d="m1185.8855 23.232601l19.559082 27.212597l0 0l-51.56189 37.082687l-23.383057 -3.8228455l0 0l3.8239746 -23.389751l51.56189 -37.082687z" fill-rule="evenodd"/><path fill="#00ff00" d="m1140.9559 222.01575l0 0c0 2.7135925 7.781006 4.913391 17.379272 4.913391c9.598267 0 17.379272 -2.1997986 17.379272 -4.913391l0 0c0 -2.7135925 7.781006 -4.913391 17.379272 -4.913391c9.598267 0 17.379272 2.1997986 17.379272 4.913391l0 39.3071c0 -2.7135925 -7.781006 -4.913391 -17.379272 -4.913391c-9.598267 0 -17.379272 2.1997986 -17.379272 4.913391c0 2.713562 -7.781006 4.9133606 -17.379272 4.9133606c-9.598267 0 -17.379272 -2.1997986 -17.379272 -4.9133606z" fill-rule="evenodd"/><path stroke="#000000" stroke-width="1.0" stroke-linejoin="round" stroke-linecap="butt" d="m1140.9559 222.01575l0 0c0 2.7135925 7.781006 4.913391 17.379272 4.913391c9.598267 0 17.379272 -2.1997986 17.379272 -4.913391l0 0c0 -2.7135925 7.781006 -4.913391 17.379272 -4.913391c9.598267 0 17.379272 2.1997986 17.379272 4.913391l0 39.3071c0 -2.7135925 -7.781006 -4.913391 -17.379272 -4.913391c-9.598267 0 -17.379272 2.1997986 -17.379272 4.913391c0 2.713562 -7.781006 4.9133606 -17.379272 4.9133606c-9.598267 0 -17.379272 -2.1997986 -17.379272 -4.9133606z" fill-rule="evenodd"/><path fill="#000000" fill-opacity="0.0" d="m1131.2761 53.810528l54.645752 -39.212597l27.307007 38.07874l-54.64563 39.212597z" fill-rule="evenodd"/><path fill="#000000" d="m1162.4537 72.16372l-1.1564941 -1.612587q-1.3151855 0.7130356 -2.3591309 0.86598206q-1.0440674 0.15294647 -2.2218018 -0.3096695q-1.1740723 -0.48442078 -2.1644287 -1.6777115l1.4063721 -1.4707565q1.1191406 1.1585083 2.0350342 1.443634q1.3048096 0.371521 2.3205566 -0.22280884l-3.6877441 -5.142502q-1.1395264 0.52919006 -2.5993652 0.69207764q-1.0839844 0.1239624 -2.0491943 -0.33727264q-0.9616699 -0.48304367 -1.6536865 -1.4480553q-1.2384033 -1.7268677 -0.7845459 -3.6679726q0.29345703 -1.3067665 1.7872314 -2.6287422l-0.5554199 -0.7745514l0.95214844 -0.6832123l0.5554199 0.7745476q1.5092773 -0.87148285 2.835205 -0.7652359q1.6947021 0.1109314 3.012329 1.4924698l-1.4936523 1.4564095q-0.82250977 -0.8521118 -1.6437988 -1.0320702q-0.821167 -0.17995834 -1.7266846 0.2197609l3.3417969 4.659996q1.4462891 -0.5570755 1.9709473 -0.6835098q0.9857178 -0.2073288 1.8015137 -0.06187439q0.81921387 0.1236496 1.5466309 0.60173035q0.727417 0.47808075 1.2738037 1.239933q1.2019043 1.6760788 0.94592285 3.5713577q-0.26501465 1.882576 -1.9023438 3.1921387l1.1655273 1.6252823l-0.95214844 0.6832123zm-10.152832 -14.157749q-0.8392334 0.8137779 -0.9481201 1.8149681q-0.10876465 1.0011902 0.4921875 1.8392258q0.59191895 0.8253403 1.449585 1.0560913q0.8703613 0.22163773 2.2115479 -0.24075317l-3.2052002 -4.469532zm8.965088 10.490612q0.8574219 -0.78837585 0.96606445 -1.923996q0.12121582 -1.1447296 -0.6254883 -2.1859283q-0.6282959 -0.87613297 -1.4423828 -1.0997047q-0.8140869 -0.22357178 -2.4311523 0.2829895l3.532959 4.9266396zm11.425049 -3.6789627l-1.1563721 -1.612587q-1.3153076 0.71303177 -2.359253 0.86598206q-1.0439453 0.15294647 -2.2216797 -0.3096695q-1.1741943 -0.48442078 -2.1645508 -1.6777077l1.4063721 -1.4707603q1.1192627 1.1585083 2.0351562 1.443634q1.3046875 0.37151718 2.3205566 -0.22281265l-3.6878662 -5.142502q-1.1394043 0.52919006 -2.5992432 0.69208527q-1.0839844 0.1239624 -2.0493164 -0.33727646q-0.9616699 -0.48304367 -1.6536865 -1.4480553q-1.2384033 -1.7268677 -0.7845459 -3.6679726q0.29345703 -1.3067665 1.7873535 -2.6287422l-0.555542 -0.7745514l0.95214844 -0.6832123l0.5554199 0.7745476q1.5092773 -0.87148285 2.8353271 -0.7652359q1.6945801 0.1109314 3.012207 1.4924698l-1.4935303 1.4564095q-0.82263184 -0.8521118 -1.6439209 -1.0320702q-0.821167 -0.17995834 -1.7266846 0.2197609l3.3417969 4.659996q1.4464111 -0.5570755 1.9709473 -0.6835098q0.98583984 -0.20732498 1.8015137 -0.06187439q0.81933594 0.1236496 1.5466309 0.60173035q0.727417 0.47808075 1.2738037 1.239933q1.2019043 1.676075 0.94592285 3.571354q-0.26501465 1.8825836 -1.9023438 3.1921387l1.1655273 1.6252861l-0.95214844 0.6832123zm-10.152832 -14.157749q-0.8392334 0.8137779 -0.94799805 1.8149681q-0.10888672 1.0011902 0.4921875 1.8392258q0.5917969 0.8253403 1.4494629 1.0560913q0.8703613 0.22163773 2.2115479 -0.24075317l-3.2052002 -4.469532zm8.965088 10.490616q0.85754395 -0.7883835 0.96606445 -1.9240036q0.12121582 -1.1447296 -0.6254883 -2.1859283q-0.6282959 -0.87612915 -1.4423828 -1.0997009q-0.81396484 -0.22357178 -2.4311523 0.2829895l3.532959 4.9266434zm11.425049 -3.6789665l-1.1563721 -1.612587q-1.3153076 0.71303177 -2.359253 0.86598206q-1.0439453 0.15294647 -2.2216797 -0.3096695q-1.1741943 -0.48442078 -2.1645508 -1.6777077l1.4063721 -1.4707603q1.1192627 1.1585083 2.0351562 1.443634q1.3046875 0.37151718 2.3205566 -0.22281265l-3.6878662 -5.142502q-1.1394043 0.52919006 -2.5992432 0.69208527q-1.0839844 0.1239624 -2.0491943 -0.33727646q-0.961792 -0.48304367 -1.6538086 -1.4480553q-1.2382812 -1.7268677 -0.7845459 -3.6679726q0.29345703 -1.3067665 1.7873535 -2.6287422l-0.5554199 -0.7745514l0.95202637 -0.6832123l0.555542 0.7745476q1.5092773 -0.87148285 2.835205 -0.7652359q1.6947021 0.1109314 3.012207 1.4924698l-1.4935303 1.4564095q-0.82263184 -0.8521118 -1.6437988 -1.0320702q-0.82128906 -0.17995834 -1.7266846 0.2197609l3.3417969 4.659996q1.4462891 -0.5570755 1.9709473 -0.6835098q0.9857178 -0.20732498 1.8013916 -0.06187439q0.81933594 0.1236496 1.5467529 0.60173035q0.727417 0.47808075 1.2736816 1.239933q1.2020264 1.676075 0.9460449 3.571354q-0.26513672 1.8825836 -1.9024658 3.1921387l1.1655273 1.6252861l-0.95214844 0.6832123zm-10.152832 -14.157749q-0.8392334 0.8137779 -0.94799805 1.8149681q-0.10876465 1.0011902 0.4921875 1.8392258q0.5917969 0.8253403 1.4494629 1.0560913q0.8703613 0.22163773 2.2115479 -0.24075317l-3.2052002 -4.469532zm8.96521 10.490616q0.8574219 -0.7883835 0.9659424 -1.9240036q0.12121582 -1.1447296 -0.6254883 -2.1859283q-0.6281738 -0.87612915 -1.4422607 -1.0997009q-0.8140869 -0.22357178 -2.4312744 0.2829895l3.533081 4.9266434z" fill-rule="nonzero"/><path fill="#000000" fill-opacity="0.0" d="m1146.9296 218.25261l67.24414 -0.03149414l0 46.866135l-67.24414 0.03149414z" fill-rule="evenodd"/><path fill="#000000" d="m1161.5702 251.33388l0 -1.984375q-1.484375 -0.1867981 -2.421875 -0.67074585q-0.9375 -0.4839325 -1.625 -1.5461121q-0.671875 -1.0778046 -0.78125 -2.6246338l2.0 -0.3759308q0.234375 1.5936432 0.8125 2.3589935q0.84375 1.0621033 2.015625 1.170929l0 -6.328125q-1.234375 -0.23379517 -2.515625 -0.9519501q-0.953125 -0.5308075 -1.46875 -1.4680634q-0.5 -0.95288086 -0.5 -2.1403809q0 -2.125 1.5 -3.438202q1.0 -0.891098 2.984375 -1.0951538l0 -0.953125l1.171875 -5.493164E-4l0 0.953125q1.734375 0.17106628 2.75 1.0299683q1.3125 1.0774994 1.578125 2.9680023l-2.0625 0.3134613q-0.171875 -1.1717834 -0.734375 -1.796524q-0.5625 -0.6247406 -1.53125 -0.82740784l0 5.734375q1.5 0.3899231 2.0 0.5928192q0.921875 0.4058075 1.5 0.9992981q0.59375 0.5778351 0.90625 1.3901978q0.3125 0.8123474 0.3125 1.7498474q0 2.0625 -1.3125 3.4537354q-1.3125 1.3756256 -3.40625 1.4859772l0 2.0l-1.171875 5.493164E-4zm0 -17.421875q-1.15625 0.17240906 -1.828125 0.9227295q-0.671875 0.75032043 -0.671875 1.7815704q0 1.015625 0.5625 1.7028503q0.578125 0.6872406 1.9375 1.0928497l0 -5.5zm1.171875 13.749451q1.15625 -0.14115906 1.90625 -1.000885q0.765625 -0.8597412 0.765625 -2.1409912q0 -1.078125 -0.53125 -1.7341309q-0.53125 -0.6559906 -2.140625 -1.1864929l0 6.0625zm11.428467 3.6665192l0 -1.984375q-1.484375 -0.1867981 -2.421875 -0.6707306q-0.9375 -0.48394775 -1.625 -1.5461273q-0.671875 -1.0778046 -0.78125 -2.6246338l2.0 -0.3759308q0.234375 1.5936432 0.8125 2.3589935q0.84375 1.0621033 2.015625 1.170929l0 -6.328125q-1.234375 -0.23379517 -2.515625 -0.9519501q-0.953125 -0.53079224 -1.46875 -1.4680634q-0.5 -0.95288086 -0.5 -2.1403809q0 -2.125 1.5 -3.438202q1.0 -0.891098 2.984375 -1.0951538l0 -0.953125l1.171875 -5.493164E-4l0 0.953125q1.734375 0.17106628 2.75 1.0299683q1.3125 1.0774994 1.578125 2.9680023l-2.0625 0.31347656q-0.171875 -1.1717987 -0.734375 -1.7965393q-0.5625 -0.6247406 -1.53125 -0.82740784l0 5.734375q1.5 0.3899231 2.0 0.5928192q0.921875 0.40582275 1.5 0.9992981q0.59375 0.57785034 0.90625 1.3901978q0.3125 0.8123474 0.3125 1.7498474q0 2.0625 -1.3125 3.4537506q-1.3125 1.3756104 -3.40625 1.4859619l0 2.0l-1.171875 5.493164E-4zm0 -17.421875q-1.15625 0.17242432 -1.828125 0.9227295q-0.671875 0.75032043 -0.671875 1.7815704q0 1.015625 0.5625 1.7028656q0.578125 0.68722534 1.9375 1.0928345l0 -5.5zm1.171875 13.749451q1.15625 -0.14115906 1.90625 -1.000885q0.765625 -0.8597412 0.765625 -2.1409912q0 -1.078125 -0.53125 -1.7341156q-0.53125 -0.65600586 -2.140625 -1.1865082l0 6.0625zm11.428467 3.6665192l0 -1.984375q-1.484375 -0.1867981 -2.421875 -0.6707306q-0.9375 -0.4839325 -1.625 -1.5461121q-0.671875 -1.0778198 -0.78125 -2.6246338l2.0 -0.37594604q0.234375 1.5936432 0.8125 2.3589935q0.84375 1.0621033 2.015625 1.170929l0 -6.328125q-1.234375 -0.23379517 -2.515625 -0.9519348q-0.953125 -0.5308075 -1.46875 -1.4680634q-0.5 -0.9528961 -0.5 -2.140396q0 -2.125 1.5 -3.438202q1.0 -0.891098 2.984375 -1.0951538l0 -0.953125l1.171875 -5.493164E-4l0 0.953125q1.734375 0.17106628 2.75 1.0299683q1.3125 1.0775146 1.578125 2.9680176l-2.0625 0.3134613q-0.171875 -1.1717987 -0.734375 -1.7965393q-0.5625 -0.62472534 -1.53125 -0.82740784l0 5.734375q1.5 0.3899231 2.0 0.5928192q0.921875 0.40582275 1.5 0.9992981q0.59375 0.57785034 0.90625 1.3901978q0.3125 0.8123627 0.3125 1.7498627q0 2.0625 -1.3125 3.4537354q-1.3125 1.3756104 -3.40625 1.4859619l0 2.0l-1.171875 5.493164E-4zm0 -17.421875q-1.15625 0.17242432 -1.828125 0.9227295q-0.671875 0.75032043 -0.671875 1.7815704q0 1.015625 0.5625 1.7028656q0.578125 0.68722534 1.9375 1.0928345l0 -5.5zm1.171875 13.749451q1.15625 -0.14115906 1.90625 -1.000885q0.765625 -0.8597412 0.765625 -2.1409912q0 -1.078125 -0.53125 -1.7341156q-0.53125 -0.65600586 -2.140625 -1.1865082l0 6.0625z" fill-rule="nonzero"/><path fill="#00ff00" d="m1140.9559 174.01575l0 0c0 2.7135925 7.781006 4.913391 17.379272 4.913391c9.598267 0 17.379272 -2.1997986 17.379272 -4.913391l0 0c0 -2.7135925 7.781006 -4.913391 17.379272 -4.913391c9.598267 0 17.379272 2.1997986 17.379272 4.913391l0 39.307083c0 -2.7135773 -7.781006 -4.913376 -17.379272 -4.913376c-9.598267 0 -17.379272 2.1997986 -17.379272 4.913376c0 2.7135925 -7.781006 4.913391 -17.379272 4.913391c-9.598267 0 -17.379272 -2.1997986 -17.379272 -4.913391z" fill-rule="evenodd"/><path stroke="#000000" stroke-width="1.0" stroke-linejoin="round" stroke-linecap="butt" d="m1140.9559 174.01575l0 0c0 2.7135925 7.781006 4.913391 17.379272 4.913391c9.598267 0 17.379272 -2.1997986 17.379272 -4.913391l0 0c0 -2.7135925 7.781006 -4.913391 17.379272 -4.913391c9.598267 0 17.379272 2.1997986 17.379272 4.913391l0 39.307083c0 -2.7135773 -7.781006 -4.913376 -17.379272 -4.913376c-9.598267 0 -17.379272 2.1997986 -17.379272 4.913376c0 2.7135925 -7.781006 4.913391 -17.379272 4.913391c-9.598267 0 -17.379272 -2.1997986 -17.379272 -4.913391z" fill-rule="evenodd"/><path fill="#000000" fill-opacity="0.0" d="m1146.9296 170.25261l67.24414 -0.03149414l0 46.866135l-67.24414 0.03149414z" fill-rule="evenodd"/><path fill="#000000" d="m1161.5702 203.33388l0 -1.984375q-1.484375 -0.1867981 -2.421875 -0.67074585q-0.9375 -0.4839325 -1.625 -1.5461121q-0.671875 -1.0778046 -0.78125 -2.6246338l2.0 -0.3759308q0.234375 1.5936432 0.8125 2.3589935q0.84375 1.0621033 2.015625 1.170929l0 -6.328125q-1.234375 -0.23379517 -2.515625 -0.9519501q-0.953125 -0.5308075 -1.46875 -1.4680634q-0.5 -0.95288086 -0.5 -2.1403809q0 -2.125 1.5 -3.438202q1.0 -0.891098 2.984375 -1.0951538l0 -0.953125l1.171875 -5.493164E-4l0 0.953125q1.734375 0.17106628 2.75 1.0299683q1.3125 1.0774994 1.578125 2.9680023l-2.0625 0.3134613q-0.171875 -1.1717834 -0.734375 -1.796524q-0.5625 -0.6247406 -1.53125 -0.82740784l0 5.734375q1.5 0.3899231 2.0 0.5928192q0.921875 0.4058075 1.5 0.9992981q0.59375 0.5778351 0.90625 1.3901978q0.3125 0.8123474 0.3125 1.7498474q0 2.0625 -1.3125 3.4537354q-1.3125 1.3756256 -3.40625 1.4859772l0 2.0l-1.171875 5.493164E-4zm0 -17.421875q-1.15625 0.17240906 -1.828125 0.9227295q-0.671875 0.75032043 -0.671875 1.7815704q0 1.015625 0.5625 1.7028503q0.578125 0.6872406 1.9375 1.0928497l0 -5.5zm1.171875 13.749451q1.15625 -0.14115906 1.90625 -1.000885q0.765625 -0.8597412 0.765625 -2.1409912q0 -1.078125 -0.53125 -1.7341309q-0.53125 -0.6559906 -2.140625 -1.1864929l0 6.0625zm11.428467 3.6665192l0 -1.984375q-1.484375 -0.1867981 -2.421875 -0.6707306q-0.9375 -0.48394775 -1.625 -1.5461273q-0.671875 -1.0778046 -0.78125 -2.6246338l2.0 -0.3759308q0.234375 1.5936432 0.8125 2.3589935q0.84375 1.0621033 2.015625 1.170929l0 -6.328125q-1.234375 -0.23379517 -2.515625 -0.9519501q-0.953125 -0.53079224 -1.46875 -1.4680634q-0.5 -0.95288086 -0.5 -2.1403809q0 -2.125 1.5 -3.438202q1.0 -0.891098 2.984375 -1.0951538l0 -0.953125l1.171875 -5.493164E-4l0 0.953125q1.734375 0.17106628 2.75 1.0299683q1.3125 1.0774994 1.578125 2.9680023l-2.0625 0.31347656q-0.171875 -1.1717987 -0.734375 -1.7965393q-0.5625 -0.6247406 -1.53125 -0.82740784l0 5.734375q1.5 0.3899231 2.0 0.5928192q0.921875 0.40582275 1.5 0.9992981q0.59375 0.57785034 0.90625 1.3901978q0.3125 0.8123474 0.3125 1.7498474q0 2.0625 -1.3125 3.4537506q-1.3125 1.3756104 -3.40625 1.4859619l0 2.0l-1.171875 5.493164E-4zm0 -17.421875q-1.15625 0.17242432 -1.828125 0.9227295q-0.671875 0.75032043 -0.671875 1.7815704q0 1.015625 0.5625 1.7028656q0.578125 0.68722534 1.9375 1.0928345l0 -5.5zm1.171875 13.749451q1.15625 -0.14115906 1.90625 -1.000885q0.765625 -0.8597412 0.765625 -2.1409912q0 -1.078125 -0.53125 -1.7341156q-0.53125 -0.65600586 -2.140625 -1.1865082l0 6.0625zm11.428467 3.6665192l0 -1.984375q-1.484375 -0.1867981 -2.421875 -0.6707306q-0.9375 -0.4839325 -1.625 -1.5461121q-0.671875 -1.0778198 -0.78125 -2.6246338l2.0 -0.37594604q0.234375 1.5936432 0.8125 2.3589935q0.84375 1.0621033 2.015625 1.170929l0 -6.328125q-1.234375 -0.23379517 -2.515625 -0.9519348q-0.953125 -0.5308075 -1.46875 -1.4680634q-0.5 -0.9528961 -0.5 -2.140396q0 -2.125 1.5 -3.438202q1.0 -0.891098 2.984375 -1.0951538l0 -0.953125l1.171875 -5.493164E-4l0 0.953125q1.734375 0.17106628 2.75 1.0299683q1.3125 1.0775146 1.578125 2.9680176l-2.0625 0.3134613q-0.171875 -1.1717987 -0.734375 -1.7965393q-0.5625 -0.62472534 -1.53125 -0.82740784l0 5.734375q1.5 0.3899231 2.0 0.5928192q0.921875 0.40582275 1.5 0.9992981q0.59375 0.57785034 0.90625 1.3901978q0.3125 0.8123627 0.3125 1.7498627q0 2.0625 -1.3125 3.4537354q-1.3125 1.3756104 -3.40625 1.4859619l0 2.0l-1.171875 5.493164E-4zm0 -17.421875q-1.15625 0.17242432 -1.828125 0.9227295q-0.671875 0.75032043 -0.671875 1.7815704q0 1.015625 0.5625 1.7028656q0.578125 0.68722534 1.9375 1.0928345l0 -5.5zm1.171875 13.749451q1.15625 -0.14115906 1.90625 -1.000885q0.765625 -0.8597412 0.765625 -2.1409912q0 -1.078125 -0.53125 -1.7341156q-0.53125 -0.65600586 -2.140625 -1.1865082l0 6.0625z" fill-rule="nonzero"/><path fill="#00ff00" d="m1412.9559 222.01575l0 0c0 2.7135925 7.781006 4.913391 17.379272 4.913391c9.598267 0 17.379272 -2.1997986 17.379272 -4.913391l0 0c0 -2.7135925 7.781006 -4.913391 17.379272 -4.913391c9.598267 0 17.379272 2.1997986 17.379272 4.913391l0 39.3071c0 -2.7135925 -7.781006 -4.913391 -17.379272 -4.913391c-9.598267 0 -17.379272 2.1997986 -17.379272 4.913391c0 2.713562 -7.781006 4.9133606 -17.379272 4.9133606c-9.598267 0 -17.379272 -2.1997986 -17.379272 -4.9133606z" fill-rule="evenodd"/><path stroke="#000000" stroke-width="1.0" stroke-linejoin="round" stroke-linecap="butt" d="m1412.9559 222.01575l0 0c0 2.7135925 7.781006 4.913391 17.379272 4.913391c9.598267 0 17.379272 -2.1997986 17.379272 -4.913391l0 0c0 -2.7135925 7.781006 -4.913391 17.379272 -4.913391c9.598267 0 17.379272 2.1997986 17.379272 4.913391l0 39.3071c0 -2.7135925 -7.781006 -4.913391 -17.379272 -4.913391c-9.598267 0 -17.379272 2.1997986 -17.379272 4.913391c0 2.713562 -7.781006 4.9133606 -17.379272 4.9133606c-9.598267 0 -17.379272 -2.1997986 -17.379272 -4.9133606z" fill-rule="evenodd"/><path fill="#000000" fill-opacity="0.0" d="m1418.9296 218.25261l67.24414 -0.03149414l0 46.866135l-67.24414 0.03149414z" fill-rule="evenodd"/><path fill="#000000" d="m1433.5702 251.33388l0 -1.984375q-1.484375 -0.1867981 -2.421875 -0.67074585q-0.9375 -0.4839325 -1.625 -1.5461121q-0.671875 -1.0778046 -0.78125 -2.6246338l2.0 -0.3759308q0.234375 1.5936432 0.8125 2.3589935q0.84375 1.0621033 2.015625 1.170929l0 -6.328125q-1.234375 -0.23379517 -2.515625 -0.9519501q-0.953125 -0.5308075 -1.46875 -1.4680634q-0.5 -0.95288086 -0.5 -2.1403809q0 -2.125 1.5 -3.438202q1.0 -0.891098 2.984375 -1.0951538l0 -0.953125l1.171875 -5.493164E-4l0 0.953125q1.734375 0.17106628 2.75 1.0299683q1.3125 1.0774994 1.578125 2.9680023l-2.0625 0.3134613q-0.171875 -1.1717834 -0.734375 -1.796524q-0.5625 -0.6247406 -1.53125 -0.82740784l0 5.734375q1.5 0.3899231 2.0 0.5928192q0.921875 0.4058075 1.5 0.9992981q0.59375 0.5778351 0.90625 1.3901978q0.3125 0.8123474 0.3125 1.7498474q0 2.0625 -1.3125 3.4537354q-1.3125 1.3756256 -3.40625 1.4859772l0 2.0l-1.171875 5.493164E-4zm0 -17.421875q-1.15625 0.17240906 -1.828125 0.9227295q-0.671875 0.75032043 -0.671875 1.7815704q0 1.015625 0.5625 1.7028503q0.578125 0.6872406 1.9375 1.0928497l0 -5.5zm1.171875 13.749451q1.15625 -0.14115906 1.90625 -1.000885q0.765625 -0.8597412 0.765625 -2.1409912q0 -1.078125 -0.53125 -1.7341309q-0.53125 -0.6559906 -2.140625 -1.1864929l0 6.0625zm11.428467 3.6665192l0 -1.984375q-1.484375 -0.1867981 -2.421875 -0.6707306q-0.9375 -0.48394775 -1.625 -1.5461273q-0.671875 -1.0778046 -0.78125 -2.6246338l2.0 -0.3759308q0.234375 1.5936432 0.8125 2.3589935q0.84375 1.0621033 2.015625 1.170929l0 -6.328125q-1.234375 -0.23379517 -2.515625 -0.9519501q-0.953125 -0.53079224 -1.46875 -1.4680634q-0.5 -0.95288086 -0.5 -2.1403809q0 -2.125 1.5 -3.438202q1.0 -0.891098 2.984375 -1.0951538l0 -0.953125l1.171875 -5.493164E-4l0 0.953125q1.734375 0.17106628 2.75 1.0299683q1.3125 1.0774994 1.578125 2.9680023l-2.0625 0.31347656q-0.171875 -1.1717987 -0.734375 -1.7965393q-0.5625 -0.6247406 -1.53125 -0.82740784l0 5.734375q1.5 0.3899231 2.0 0.5928192q0.921875 0.40582275 1.5 0.9992981q0.59375 0.57785034 0.90625 1.3901978q0.3125 0.8123474 0.3125 1.7498474q0 2.0625 -1.3125 3.4537506q-1.3125 1.3756104 -3.40625 1.4859619l0 2.0l-1.171875 5.493164E-4zm0 -17.421875q-1.15625 0.17242432 -1.828125 0.9227295q-0.671875 0.75032043 -0.671875 1.7815704q0 1.015625 0.5625 1.7028656q0.578125 0.68722534 1.9375 1.0928345l0 -5.5zm1.171875 13.749451q1.15625 -0.14115906 1.90625 -1.000885q0.765625 -0.8597412 0.765625 -2.1409912q0 -1.078125 -0.53125 -1.7341156q-0.53125 -0.65600586 -2.140625 -1.1865082l0 6.0625zm11.428467 3.6665192l0 -1.984375q-1.484375 -0.1867981 -2.421875 -0.6707306q-0.9375 -0.4839325 -1.625 -1.5461121q-0.671875 -1.0778198 -0.78125 -2.6246338l2.0 -0.37594604q0.234375 1.5936432 0.8125 2.3589935q0.84375 1.0621033 2.015625 1.170929l0 -6.328125q-1.234375 -0.23379517 -2.515625 -0.9519348q-0.953125 -0.5308075 -1.46875 -1.4680634q-0.5 -0.9528961 -0.5 -2.140396q0 -2.125 1.5 -3.438202q1.0 -0.891098 2.984375 -1.0951538l0 -0.953125l1.171875 -5.493164E-4l0 0.953125q1.734375 0.17106628 2.75 1.0299683q1.3125 1.0775146 1.578125 2.9680176l-2.0625 0.3134613q-0.171875 -1.1717987 -0.734375 -1.7965393q-0.5625 -0.62472534 -1.53125 -0.82740784l0 5.734375q1.5 0.3899231 2.0 0.5928192q0.921875 0.40582275 1.5 0.9992981q0.59375 0.57785034 0.90625 1.3901978q0.3125 0.8123627 0.3125 1.7498627q0 2.0625 -1.3125 3.4537354q-1.3125 1.3756104 -3.40625 1.4859619l0 2.0l-1.171875 5.493164E-4zm0 -17.421875q-1.15625 0.17242432 -1.828125 0.9227295q-0.671875 0.75032043 -0.671875 1.7815704q0 1.015625 0.5625 1.7028656q0.578125 0.68722534 1.9375 1.0928345l0 -5.5zm1.171875 13.749451q1.15625 -0.14115906 1.90625 -1.000885q0.765625 -0.8597412 0.765625 -2.1409912q0 -1.078125 -0.53125 -1.7341156q-0.53125 -0.65600586 -2.140625 -1.1865082l0 6.0625z" fill-rule="nonzero"/><path fill="#00ff00" d="m1412.9559 174.01575l0 0c0 2.7135925 7.781006 4.913391 17.379272 4.913391c9.598267 0 17.379272 -2.1997986 17.379272 -4.913391l0 0c0 -2.7135925 7.781006 -4.913391 17.379272 -4.913391c9.598267 0 17.379272 2.1997986 17.379272 4.913391l0 39.307083c0 -2.7135773 -7.781006 -4.913376 -17.379272 -4.913376c-9.598267 0 -17.379272 2.1997986 -17.379272 4.913376c0 2.7135925 -7.781006 4.913391 -17.379272 4.913391c-9.598267 0 -17.379272 -2.1997986 -17.379272 -4.913391z" fill-rule="evenodd"/><path stroke="#000000" stroke-width="1.0" stroke-linejoin="round" stroke-linecap="butt" d="m1412.9559 174.01575l0 0c0 2.7135925 7.781006 4.913391 17.379272 4.913391c9.598267 0 17.379272 -2.1997986 17.379272 -4.913391l0 0c0 -2.7135925 7.781006 -4.913391 17.379272 -4.913391c9.598267 0 17.379272 2.1997986 17.379272 4.913391l0 39.307083c0 -2.7135773 -7.781006 -4.913376 -17.379272 -4.913376c-9.598267 0 -17.379272 2.1997986 -17.379272 4.913376c0 2.7135925 -7.781006 4.913391 -17.379272 4.913391c-9.598267 0 -17.379272 -2.1997986 -17.379272 -4.913391z" fill-rule="evenodd"/><path fill="#000000" fill-opacity="0.0" d="m1418.9296 170.25261l67.24414 -0.03149414l0 46.866135l-67.24414 0.03149414z" fill-rule="evenodd"/><path fill="#000000" d="m1433.5702 203.33388l0 -1.984375q-1.484375 -0.1867981 -2.421875 -0.67074585q-0.9375 -0.4839325 -1.625 -1.5461121q-0.671875 -1.0778046 -0.78125 -2.6246338l2.0 -0.3759308q0.234375 1.5936432 0.8125 2.3589935q0.84375 1.0621033 2.015625 1.170929l0 -6.328125q-1.234375 -0.23379517 -2.515625 -0.9519501q-0.953125 -0.5308075 -1.46875 -1.4680634q-0.5 -0.95288086 -0.5 -2.1403809q0 -2.125 1.5 -3.438202q1.0 -0.891098 2.984375 -1.0951538l0 -0.953125l1.171875 -5.493164E-4l0 0.953125q1.734375 0.17106628 2.75 1.0299683q1.3125 1.0774994 1.578125 2.9680023l-2.0625 0.3134613q-0.171875 -1.1717834 -0.734375 -1.796524q-0.5625 -0.6247406 -1.53125 -0.82740784l0 5.734375q1.5 0.3899231 2.0 0.5928192q0.921875 0.4058075 1.5 0.9992981q0.59375 0.5778351 0.90625 1.3901978q0.3125 0.8123474 0.3125 1.7498474q0 2.0625 -1.3125 3.4537354q-1.3125 1.3756256 -3.40625 1.4859772l0 2.0l-1.171875 5.493164E-4zm0 -17.421875q-1.15625 0.17240906 -1.828125 0.9227295q-0.671875 0.75032043 -0.671875 1.7815704q0 1.015625 0.5625 1.7028503q0.578125 0.6872406 1.9375 1.0928497l0 -5.5zm1.171875 13.749451q1.15625 -0.14115906 1.90625 -1.000885q0.765625 -0.8597412 0.765625 -2.1409912q0 -1.078125 -0.53125 -1.7341309q-0.53125 -0.6559906 -2.140625 -1.1864929l0 6.0625zm11.428467 3.6665192l0 -1.984375q-1.484375 -0.1867981 -2.421875 -0.6707306q-0.9375 -0.48394775 -1.625 -1.5461273q-0.671875 -1.0778046 -0.78125 -2.6246338l2.0 -0.3759308q0.234375 1.5936432 0.8125 2.3589935q0.84375 1.0621033 2.015625 1.170929l0 -6.328125q-1.234375 -0.23379517 -2.515625 -0.9519501q-0.953125 -0.53079224 -1.46875 -1.4680634q-0.5 -0.95288086 -0.5 -2.1403809q0 -2.125 1.5 -3.438202q1.0 -0.891098 2.984375 -1.0951538l0 -0.953125l1.171875 -5.493164E-4l0 0.953125q1.734375 0.17106628 2.75 1.0299683q1.3125 1.0774994 1.578125 2.9680023l-2.0625 0.31347656q-0.171875 -1.1717987 -0.734375 -1.7965393q-0.5625 -0.6247406 -1.53125 -0.82740784l0 5.734375q1.5 0.3899231 2.0 0.5928192q0.921875 0.40582275 1.5 0.9992981q0.59375 0.57785034 0.90625 1.3901978q0.3125 0.8123474 0.3125 1.7498474q0 2.0625 -1.3125 3.4537506q-1.3125 1.3756104 -3.40625 1.4859619l0 2.0l-1.171875 5.493164E-4zm0 -17.421875q-1.15625 0.17242432 -1.828125 0.9227295q-0.671875 0.75032043 -0.671875 1.7815704q0 1.015625 0.5625 1.7028656q0.578125 0.68722534 1.9375 1.0928345l0 -5.5zm1.171875 13.749451q1.15625 -0.14115906 1.90625 -1.000885q0.765625 -0.8597412 0.765625 -2.1409912q0 -1.078125 -0.53125 -1.7341156q-0.53125 -0.65600586 -2.140625 -1.1865082l0 6.0625zm11.428467 3.6665192l0 -1.984375q-1.484375 -0.1867981 -2.421875 -0.6707306q-0.9375 -0.4839325 -1.625 -1.5461121q-0.671875 -1.0778198 -0.78125 -2.6246338l2.0 -0.37594604q0.234375 1.5936432 0.8125 2.3589935q0.84375 1.0621033 2.015625 1.170929l0 -6.328125q-1.234375 -0.23379517 -2.515625 -0.9519348q-0.953125 -0.5308075 -1.46875 -1.4680634q-0.5 -0.9528961 -0.5 -2.140396q0 -2.125 1.5 -3.438202q1.0 -0.891098 2.984375 -1.0951538l0 -0.953125l1.171875 -5.493164E-4l0 0.953125q1.734375 0.17106628 2.75 1.0299683q1.3125 1.0775146 1.578125 2.9680176l-2.0625 0.3134613q-0.171875 -1.1717987 -0.734375 -1.7965393q-0.5625 -0.62472534 -1.53125 -0.82740784l0 5.734375q1.5 0.3899231 2.0 0.5928192q0.921875 0.40582275 1.5 0.9992981q0.59375 0.57785034 0.90625 1.3901978q0.3125 0.8123627 0.3125 1.7498627q0 2.0625 -1.3125 3.4537354q-1.3125 1.3756104 -3.40625 1.4859619l0 2.0l-1.171875 5.493164E-4zm0 -17.421875q-1.15625 0.17242432 -1.828125 0.9227295q-0.671875 0.75032043 -0.671875 1.7815704q0 1.015625 0.5625 1.7028656q0.578125 0.68722534 1.9375 1.0928345l0 -5.5zm1.171875 13.749451q1.15625 -0.14115906 1.90625 -1.000885q0.765625 -0.8597412 0.765625 -2.1409912q0 -1.078125 -0.53125 -1.7341156q-0.53125 -0.65600586 -2.140625 -1.1865082l0 6.0625z" fill-rule="nonzero"/><path fill="#00ff00" d="m1412.9559 126.01575l0 0c0 2.7135925 7.781006 4.913391 17.379272 4.913391c9.598267 0 17.379272 -2.1997986 17.379272 -4.913391l0 0c0 -2.713585 7.781006 -4.9133835 17.379272 -4.9133835c9.598267 0 17.379272 2.1997986 17.379272 4.9133835l0 39.307083c0 -2.7135773 -7.781006 -4.913376 -17.379272 -4.913376c-9.598267 0 -17.379272 2.1997986 -17.379272 4.913376c0 2.7135925 -7.781006 4.913391 -17.379272 4.913391c-9.598267 0 -17.379272 -2.1997986 -17.379272 -4.913391z" fill-rule="evenodd"/><path stroke="#000000" stroke-width="1.0" stroke-linejoin="round" stroke-linecap="butt" d="m1412.9559 126.01575l0 0c0 2.7135925 7.781006 4.913391 17.379272 4.913391c9.598267 0 17.379272 -2.1997986 17.379272 -4.913391l0 0c0 -2.713585 7.781006 -4.9133835 17.379272 -4.9133835c9.598267 0 17.379272 2.1997986 17.379272 4.9133835l0 39.307083c0 -2.7135773 -7.781006 -4.913376 -17.379272 -4.913376c-9.598267 0 -17.379272 2.1997986 -17.379272 4.913376c0 2.7135925 -7.781006 4.913391 -17.379272 4.913391c-9.598267 0 -17.379272 -2.1997986 -17.379272 -4.913391z" fill-rule="evenodd"/><path fill="#000000" fill-opacity="0.0" d="m1418.9296 122.25261l67.24414 -0.03149414l0 46.866135l-67.24414 0.03149414z" fill-rule="evenodd"/><path fill="#000000" d="m1433.5702 155.33388l0 -1.984375q-1.484375 -0.1867981 -2.421875 -0.67074585q-0.9375 -0.4839325 -1.625 -1.5461121q-0.671875 -1.0778046 -0.78125 -2.6246338l2.0 -0.3759308q0.234375 1.5936432 0.8125 2.3589935q0.84375 1.0621033 2.015625 1.170929l0 -6.328125q-1.234375 -0.23379517 -2.515625 -0.9519501q-0.953125 -0.5308075 -1.46875 -1.4680634q-0.5 -0.95288086 -0.5 -2.1403809q0 -2.125 1.5 -3.438202q1.0 -0.891098 2.984375 -1.0951538l0 -0.953125l1.171875 -5.493164E-4l0 0.953125q1.734375 0.17106628 2.75 1.0299683q1.3125 1.0774994 1.578125 2.9680023l-2.0625 0.3134613q-0.171875 -1.1717834 -0.734375 -1.796524q-0.5625 -0.6247406 -1.53125 -0.82740784l0 5.734375q1.5 0.3899231 2.0 0.5928192q0.921875 0.4058075 1.5 0.9992981q0.59375 0.5778351 0.90625 1.3901978q0.3125 0.8123474 0.3125 1.7498474q0 2.0625 -1.3125 3.4537354q-1.3125 1.3756256 -3.40625 1.4859772l0 2.0l-1.171875 5.493164E-4zm0 -17.421875q-1.15625 0.17240906 -1.828125 0.9227295q-0.671875 0.75032043 -0.671875 1.7815704q0 1.015625 0.5625 1.7028503q0.578125 0.6872406 1.9375 1.0928497l0 -5.5zm1.171875 13.749451q1.15625 -0.14115906 1.90625 -1.000885q0.765625 -0.8597412 0.765625 -2.1409912q0 -1.078125 -0.53125 -1.7341309q-0.53125 -0.6559906 -2.140625 -1.1864929l0 6.0625zm11.428467 3.6665192l0 -1.984375q-1.484375 -0.1867981 -2.421875 -0.6707306q-0.9375 -0.48394775 -1.625 -1.5461273q-0.671875 -1.0778046 -0.78125 -2.6246338l2.0 -0.3759308q0.234375 1.5936432 0.8125 2.3589935q0.84375 1.0621033 2.015625 1.170929l0 -6.328125q-1.234375 -0.23379517 -2.515625 -0.9519501q-0.953125 -0.53079224 -1.46875 -1.4680634q-0.5 -0.95288086 -0.5 -2.1403809q0 -2.125 1.5 -3.438202q1.0 -0.891098 2.984375 -1.0951538l0 -0.953125l1.171875 -5.493164E-4l0 0.953125q1.734375 0.17106628 2.75 1.0299683q1.3125 1.0774994 1.578125 2.9680023l-2.0625 0.31347656q-0.171875 -1.1717987 -0.734375 -1.7965393q-0.5625 -0.6247406 -1.53125 -0.82740784l0 5.734375q1.5 0.3899231 2.0 0.5928192q0.921875 0.40582275 1.5 0.9992981q0.59375 0.57785034 0.90625 1.3901978q0.3125 0.8123474 0.3125 1.7498474q0 2.0625 -1.3125 3.4537506q-1.3125 1.3756104 -3.40625 1.4859619l0 2.0l-1.171875 5.493164E-4zm0 -17.421875q-1.15625 0.17242432 -1.828125 0.9227295q-0.671875 0.75032043 -0.671875 1.7815704q0 1.015625 0.5625 1.7028656q0.578125 0.68722534 1.9375 1.0928345l0 -5.5zm1.171875 13.749451q1.15625 -0.14115906 1.90625 -1.000885q0.765625 -0.8597412 0.765625 -2.1409912q0 -1.078125 -0.53125 -1.7341156q-0.53125 -0.65600586 -2.140625 -1.1865082l0 6.0625zm11.428467 3.6665192l0 -1.984375q-1.484375 -0.1867981 -2.421875 -0.6707306q-0.9375 -0.4839325 -1.625 -1.5461121q-0.671875 -1.0778198 -0.78125 -2.6246338l2.0 -0.37594604q0.234375 1.5936432 0.8125 2.3589935q0.84375 1.0621033 2.015625 1.170929l0 -6.328125q-1.234375 -0.23379517 -2.515625 -0.9519348q-0.953125 -0.5308075 -1.46875 -1.4680634q-0.5 -0.9528961 -0.5 -2.140396q0 -2.125 1.5 -3.438202q1.0 -0.891098 2.984375 -1.0951538l0 -0.953125l1.171875 -5.493164E-4l0 0.953125q1.734375 0.17106628 2.75 1.0299683q1.3125 1.0775146 1.578125 2.9680176l-2.0625 0.3134613q-0.171875 -1.1717987 -0.734375 -1.7965393q-0.5625 -0.62472534 -1.53125 -0.82740784l0 5.734375q1.5 0.3899231 2.0 0.5928192q0.921875 0.40582275 1.5 0.9992981q0.59375 0.57785034 0.90625 1.3901978q0.3125 0.8123627 0.3125 1.7498627q0 2.0625 -1.3125 3.4537354q-1.3125 1.3756104 -3.40625 1.4859619l0 2.0l-1.171875 5.493164E-4zm0 -17.421875q-1.15625 0.17242432 -1.828125 0.9227295q-0.671875 0.75032043 -0.671875 1.7815704q0 1.015625 0.5625 1.7028656q0.578125 0.68722534 1.9375 1.0928345l0 -5.5zm1.171875 13.749451q1.15625 -0.14115906 1.90625 -1.000885q0.765625 -0.8597412 0.765625 -2.1409912q0 -1.078125 -0.53125 -1.7341156q-0.53125 -0.65600586 -2.140625 -1.1865082l0 6.0625z" fill-rule="nonzero"/><path fill="#00ff00" d="m1412.9559 78.01575l0 0c0 2.7135925 7.781006 4.9133835 17.379272 4.9133835c9.598267 0 17.379272 -2.199791 17.379272 -4.9133835l0 0c0 -2.713585 7.781006 -4.9133835 17.379272 -4.9133835c9.598267 0 17.379272 2.1997986 17.379272 4.9133835l0 39.30709c0 -2.7135925 -7.781006 -4.913391 -17.379272 -4.913391c-9.598267 0 -17.379272 2.1997986 -17.379272 4.913391c0 2.713585 -7.781006 4.9133835 -17.379272 4.9133835c-9.598267 0 -17.379272 -2.1997986 -17.379272 -4.9133835z" fill-rule="evenodd"/><path stroke="#000000" stroke-width="1.0" stroke-linejoin="round" stroke-linecap="butt" d="m1412.9559 78.01575l0 0c0 2.7135925 7.781006 4.9133835 17.379272 4.9133835c9.598267 0 17.379272 -2.199791 17.379272 -4.9133835l0 0c0 -2.713585 7.781006 -4.9133835 17.379272 -4.9133835c9.598267 0 17.379272 2.1997986 17.379272 4.9133835l0 39.30709c0 -2.7135925 -7.781006 -4.913391 -17.379272 -4.913391c-9.598267 0 -17.379272 2.1997986 -17.379272 4.913391c0 2.713585 -7.781006 4.9133835 -17.379272 4.9133835c-9.598267 0 -17.379272 -2.1997986 -17.379272 -4.9133835z" fill-rule="evenodd"/><path fill="#000000" fill-opacity="0.0" d="m1418.9296 74.25261l67.24414 -0.03149414l0 46.866142l-67.24414 0.03149414z" fill-rule="evenodd"/><path fill="#000000" d="m1433.5702 107.33388l0 -1.984375q-1.484375 -0.18680573 -2.421875 -0.6707382q-0.9375 -0.48394012 -1.625 -1.5461197q-0.671875 -1.0778046 -0.78125 -2.6246338l2.0 -0.3759308q0.234375 1.5936356 0.8125 2.3589935q0.84375 1.0621033 2.015625 1.170929l0 -6.328125q-1.234375 -0.23379517 -2.515625 -0.9519501q-0.953125 -0.53079987 -1.46875 -1.4680634q-0.5 -0.9528885 -0.5 -2.1403885q0 -2.125 1.5 -3.438202q1.0 -0.8910904 2.984375 -1.0951462l0 -0.953125l1.171875 -5.493164E-4l0 0.953125q1.734375 0.17105865 2.75 1.0299606q1.3125 1.077507 1.578125 2.96801l-2.0625 0.31346893q-0.171875 -1.1717987 -0.734375 -1.7965317q-0.5625 -0.6247406 -1.53125 -0.82740784l0 5.734375q1.5 0.3899231 2.0 0.5928116q0.921875 0.40582275 1.5 0.9992981q0.59375 0.57785034 0.90625 1.3901978q0.3125 0.81235504 0.3125 1.749855q0 2.0625 -1.3125 3.453743q-1.3125 1.375618 -3.40625 1.4859695l0 2.0l-1.171875 5.493164E-4zm0 -17.421875q-1.15625 0.17241669 -1.828125 0.9227295q-0.671875 0.7503128 -0.671875 1.7815628q0 1.015625 0.5625 1.7028656q0.578125 0.68722534 1.9375 1.0928421l0 -5.5zm1.171875 13.749451q1.15625 -0.14116669 1.90625 -1.0008926q0.765625 -0.8597336 0.765625 -2.1409836q0 -1.078125 -0.53125 -1.7341232q-0.53125 -0.65600586 -2.140625 -1.1865005l0 6.0625zm11.428467 3.6665192l0 -1.984375q-1.484375 -0.1867981 -2.421875 -0.6707382q-0.9375 -0.4839325 -1.625 -1.5461121q-0.671875 -1.0778122 -0.78125 -2.6246338l2.0 -0.37593842q0.234375 1.5936432 0.8125 2.3589935q0.84375 1.0621033 2.015625 1.170929l0 -6.328125q-1.234375 -0.23379517 -2.515625 -0.95194244q-0.953125 -0.5308075 -1.46875 -1.4680634q-0.5 -0.9528885 -0.5 -2.1403885q0 -2.125 1.5 -3.4382095q1.0 -0.8910904 2.984375 -1.0951462l0 -0.953125l1.171875 -5.493164E-4l0 0.953125q1.734375 0.17106628 2.75 1.0299606q1.3125 1.0775146 1.578125 2.9680176l-2.0625 0.3134613q-0.171875 -1.1717911 -0.734375 -1.7965317q-0.5625 -0.624733 -1.53125 -0.82740784l0 5.734375q1.5 0.3899231 2.0 0.5928192q0.921875 0.40581512 1.5 0.9992981q0.59375 0.5778427 0.90625 1.3901978q0.3125 0.81235504 0.3125 1.749855q0 2.0625 -1.3125 3.4537354q-1.3125 1.375618 -3.40625 1.4859772l0 2.0l-1.171875 5.41687E-4zm0 -17.421875q-1.15625 0.17241669 -1.828125 0.9227295q-0.671875 0.75032043 -0.671875 1.7815704q0 1.015625 0.5625 1.702858q0.578125 0.687233 1.9375 1.0928421l0 -5.5zm1.171875 13.749451q1.15625 -0.14115906 1.90625 -1.0008926q0.765625 -0.8597336 0.765625 -2.1409836q0 -1.078125 -0.53125 -1.7341232q-0.53125 -0.65599823 -2.140625 -1.1865005l0 6.0625zm11.428467 3.6665268l0 -1.984375q-1.484375 -0.18680573 -2.421875 -0.6707382q-0.9375 -0.48394012 -1.625 -1.5461197q-0.671875 -1.0778046 -0.78125 -2.6246338l2.0 -0.37593842q0.234375 1.5936432 0.8125 2.3590012q0.84375 1.0621033 2.015625 1.170929l0 -6.328125q-1.234375 -0.23379517 -2.515625 -0.9519501q-0.953125 -0.53079987 -1.46875 -1.4680634q-0.5 -0.9528885 -0.5 -2.1403885q0 -2.125 1.5 -3.438202q1.0 -0.891098 2.984375 -1.0951462l0 -0.953125l1.171875 -5.493164E-4l0 0.953125q1.734375 0.17105865 2.75 1.0299606q1.3125 1.077507 1.578125 2.96801l-2.0625 0.31346893q-0.171875 -1.1717987 -0.734375 -1.7965317q-0.5625 -0.6247406 -1.53125 -0.82740784l0 5.734375q1.5 0.3899231 2.0 0.5928116q0.921875 0.40581512 1.5 0.9992981q0.59375 0.57785034 0.90625 1.3901978q0.3125 0.81235504 0.3125 1.749855q0 2.0625 -1.3125 3.453743q-1.3125 1.3756104 -3.40625 1.4859695l0 2.0l-1.171875 5.493164E-4zm0 -17.421875q-1.15625 0.17241669 -1.828125 0.9227295q-0.671875 0.7503128 -0.671875 1.7815628q0 1.015625 0.5625 1.7028656q0.578125 0.68722534 1.9375 1.0928421l0 -5.5zm1.171875 13.749451q1.15625 -0.14116669 1.90625 -1.0008926q0.765625 -0.8597336 0.765625 -2.1409836q0 -1.078125 -0.53125 -1.7341309q-0.53125 -0.65599823 -2.140625 -1.1864929l0 6.0625z" fill-rule="nonzero"/><path fill="#000000" d="m227.91864 139.81102l95.90552 0l0 -9.763779l19.527557 19.527557l-19.527557 19.527557l0 -9.763779l-95.90552 0z" fill-rule="evenodd"/><path stroke="#000000" stroke-width="1.0" stroke-linejoin="round" stroke-linecap="butt" d="m227.91864 139.81102l95.90552 0l0 -9.763779l19.527557 19.527557l-19.527557 19.527557l0 -9.763779l-95.90552 0z" fill-rule="evenodd"/><path fill="#000000" d="m563.91864 139.81102l95.90552 0l0 -9.763779l19.527527 19.527557l-19.527527 19.527557l0 -9.763779l-95.90552 0z" fill-rule="evenodd"/><path stroke="#000000" stroke-width="1.0" stroke-linejoin="round" stroke-linecap="butt" d="m563.91864 139.81102l95.90552 0l0 -9.763779l19.527527 19.527557l-19.527527 19.527557l0 -9.763779l-95.90552 0z" fill-rule="evenodd"/><path fill="#000000" d="m995.91864 139.81102l95.90546 0l0 -9.763779l19.527588 19.527557l-19.527588 19.527557l0 -9.763779l-95.90546 0z" fill-rule="evenodd"/><path stroke="#000000" stroke-width="1.0" stroke-linejoin="round" stroke-linecap="butt" d="m995.91864 139.81102l95.90546 0l0 -9.763779l19.527588 19.527557l-19.527588 19.527557l0 -9.763779l-95.90546 0z" fill-rule="evenodd"/></g></svg>